<?xml version="1.0" encoding="utf-8" standalone="no"?>
<!DOCTYPE svg PUBLIC "-//W3C//DTD SVG 1.1//EN"
  "http://www.w3.org/Graphics/SVG/1.1/DTD/svg11.dtd">
<!-- Created with matplotlib (https://matplotlib.org/) -->
<svg height="391.153437pt" version="1.1" viewBox="0 0 375.2875 391.153437" width="375.2875pt" xmlns="http://www.w3.org/2000/svg" xmlns:xlink="http://www.w3.org/1999/xlink">
 <defs>
  <style type="text/css">
*{stroke-linecap:butt;stroke-linejoin:round;}
  </style>
 </defs>
 <g id="figure_1">
  <g id="patch_1">
   <path d="M 0 391.153437 
L 375.2875 391.153437 
L 375.2875 0 
L 0 0 
z
" style="fill:#ffffff;"/>
  </g>
  <g id="axes_1">
   <g id="patch_2">
    <path d="M 33.2875 239.758125 
L 368.0875 239.758125 
L 368.0875 22.318125 
L 33.2875 22.318125 
z
" style="fill:#ffffff;"/>
   </g>
   <g id="patch_3">
    <path clip-path="url(#p907569f582)" d="M 36.173707 239.758125 
L 41.946121 239.758125 
L 41.946121 32.672411 
L 36.173707 32.672411 
z
" style="fill:#1f77b4;"/>
   </g>
   <g id="patch_4">
    <path clip-path="url(#p907569f582)" d="M 47.718534 239.758125 
L 53.490948 239.758125 
L 53.490948 52.309849 
L 47.718534 52.309849 
z
" style="fill:#1f77b4;"/>
   </g>
   <g id="patch_5">
    <path clip-path="url(#p907569f582)" d="M 59.263362 239.758125 
L 65.035776 239.758125 
L 65.035776 89.799504 
L 59.263362 89.799504 
z
" style="fill:#1f77b4;"/>
   </g>
   <g id="patch_6">
    <path clip-path="url(#p907569f582)" d="M 70.80819 239.758125 
L 76.580603 239.758125 
L 76.580603 114.792608 
L 70.80819 114.792608 
z
" style="fill:#1f77b4;"/>
   </g>
   <g id="patch_7">
    <path clip-path="url(#p907569f582)" d="M 82.353017 239.758125 
L 88.125431 239.758125 
L 88.125431 150.497041 
L 82.353017 150.497041 
z
" style="fill:#1f77b4;"/>
   </g>
   <g id="patch_8">
    <path clip-path="url(#p907569f582)" d="M 93.897845 239.758125 
L 99.670259 239.758125 
L 99.670259 164.778815 
L 93.897845 164.778815 
z
" style="fill:#1f77b4;"/>
   </g>
   <g id="patch_9">
    <path clip-path="url(#p907569f582)" d="M 105.442672 239.758125 
L 111.215086 239.758125 
L 111.215086 187.986696 
L 105.442672 187.986696 
z
" style="fill:#1f77b4;"/>
   </g>
   <g id="patch_10">
    <path clip-path="url(#p907569f582)" d="M 116.9875 239.758125 
L 122.759914 239.758125 
L 122.759914 195.127583 
L 116.9875 195.127583 
z
" style="fill:#1f77b4;"/>
   </g>
   <g id="patch_11">
    <path clip-path="url(#p907569f582)" d="M 128.532328 239.758125 
L 134.304741 239.758125 
L 134.304741 200.483248 
L 128.532328 200.483248 
z
" style="fill:#1f77b4;"/>
   </g>
   <g id="patch_12">
    <path clip-path="url(#p907569f582)" d="M 140.077155 239.758125 
L 145.849569 239.758125 
L 145.849569 207.624135 
L 140.077155 207.624135 
z
" style="fill:#1f77b4;"/>
   </g>
   <g id="patch_13">
    <path clip-path="url(#p907569f582)" d="M 151.621983 239.758125 
L 157.394397 239.758125 
L 157.394397 212.9798 
L 151.621983 212.9798 
z
" style="fill:#1f77b4;"/>
   </g>
   <g id="patch_14">
    <path clip-path="url(#p907569f582)" d="M 163.16681 239.758125 
L 168.939224 239.758125 
L 168.939224 212.9798 
L 163.16681 212.9798 
z
" style="fill:#1f77b4;"/>
   </g>
   <g id="patch_15">
    <path clip-path="url(#p907569f582)" d="M 174.711638 239.758125 
L 180.484052 239.758125 
L 180.484052 216.550243 
L 174.711638 216.550243 
z
" style="fill:#1f77b4;"/>
   </g>
   <g id="patch_16">
    <path clip-path="url(#p907569f582)" d="M 186.256466 239.758125 
L 192.028879 239.758125 
L 192.028879 218.335465 
L 186.256466 218.335465 
z
" style="fill:#1f77b4;"/>
   </g>
   <g id="patch_17">
    <path clip-path="url(#p907569f582)" d="M 197.801293 239.758125 
L 203.573707 239.758125 
L 203.573707 223.69113 
L 197.801293 223.69113 
z
" style="fill:#1f77b4;"/>
   </g>
   <g id="patch_18">
    <path clip-path="url(#p907569f582)" d="M 209.346121 239.758125 
L 215.118534 239.758125 
L 215.118534 227.261573 
L 209.346121 227.261573 
z
" style="fill:#1f77b4;"/>
   </g>
   <g id="patch_19">
    <path clip-path="url(#p907569f582)" d="M 220.890948 239.758125 
L 226.663362 239.758125 
L 226.663362 230.832017 
L 220.890948 230.832017 
z
" style="fill:#1f77b4;"/>
   </g>
   <g id="patch_20">
    <path clip-path="url(#p907569f582)" d="M 232.435776 239.758125 
L 238.20819 239.758125 
L 238.20819 232.617238 
L 232.435776 232.617238 
z
" style="fill:#1f77b4;"/>
   </g>
   <g id="patch_21">
    <path clip-path="url(#p907569f582)" d="M 243.980603 239.758125 
L 249.753017 239.758125 
L 249.753017 232.617238 
L 243.980603 232.617238 
z
" style="fill:#1f77b4;"/>
   </g>
   <g id="patch_22">
    <path clip-path="url(#p907569f582)" d="M 255.525431 239.758125 
L 261.297845 239.758125 
L 261.297845 232.617238 
L 255.525431 232.617238 
z
" style="fill:#1f77b4;"/>
   </g>
   <g id="patch_23">
    <path clip-path="url(#p907569f582)" d="M 267.070259 239.758125 
L 272.842672 239.758125 
L 272.842672 234.40246 
L 267.070259 234.40246 
z
" style="fill:#1f77b4;"/>
   </g>
   <g id="patch_24">
    <path clip-path="url(#p907569f582)" d="M 278.615086 239.758125 
L 284.3875 239.758125 
L 284.3875 234.40246 
L 278.615086 234.40246 
z
" style="fill:#1f77b4;"/>
   </g>
   <g id="patch_25">
    <path clip-path="url(#p907569f582)" d="M 290.159914 239.758125 
L 295.932328 239.758125 
L 295.932328 234.40246 
L 290.159914 234.40246 
z
" style="fill:#1f77b4;"/>
   </g>
   <g id="patch_26">
    <path clip-path="url(#p907569f582)" d="M 301.704741 239.758125 
L 307.477155 239.758125 
L 307.477155 236.187682 
L 301.704741 236.187682 
z
" style="fill:#1f77b4;"/>
   </g>
   <g id="patch_27">
    <path clip-path="url(#p907569f582)" d="M 313.249569 239.758125 
L 319.021983 239.758125 
L 319.021983 236.187682 
L 313.249569 236.187682 
z
" style="fill:#1f77b4;"/>
   </g>
   <g id="patch_28">
    <path clip-path="url(#p907569f582)" d="M 324.794397 239.758125 
L 330.56681 239.758125 
L 330.56681 237.972903 
L 324.794397 237.972903 
z
" style="fill:#1f77b4;"/>
   </g>
   <g id="patch_29">
    <path clip-path="url(#p907569f582)" d="M 336.339224 239.758125 
L 342.111638 239.758125 
L 342.111638 237.972903 
L 336.339224 237.972903 
z
" style="fill:#1f77b4;"/>
   </g>
   <g id="patch_30">
    <path clip-path="url(#p907569f582)" d="M 347.884052 239.758125 
L 353.656466 239.758125 
L 353.656466 237.972903 
L 347.884052 237.972903 
z
" style="fill:#1f77b4;"/>
   </g>
   <g id="patch_31">
    <path clip-path="url(#p907569f582)" d="M 359.428879 239.758125 
L 365.201293 239.758125 
L 365.201293 237.972903 
L 359.428879 237.972903 
z
" style="fill:#1f77b4;"/>
   </g>
   <g id="matplotlib.axis_1">
    <g id="xtick_1">
     <g id="line2d_1">
      <defs>
       <path d="M 0 0 
L 0 3.5 
" id="meb77a2d6bc" style="stroke:#000000;stroke-width:0.8;"/>
      </defs>
      <g>
       <use style="stroke:#000000;stroke-width:0.8;" x="39.059914" xlink:href="#meb77a2d6bc" y="239.758125"/>
      </g>
     </g>
     <g id="text_1">
      <!-- Tutuka Ariadji -->
      <defs>
       <path d="M -0.296875 72.90625 
L 61.375 72.90625 
L 61.375 64.59375 
L 35.5 64.59375 
L 35.5 0 
L 25.59375 0 
L 25.59375 64.59375 
L -0.296875 64.59375 
z
" id="DejaVuSans-84"/>
       <path d="M 8.5 21.578125 
L 8.5 54.6875 
L 17.484375 54.6875 
L 17.484375 21.921875 
Q 17.484375 14.15625 20.5 10.265625 
Q 23.53125 6.390625 29.59375 6.390625 
Q 36.859375 6.390625 41.078125 11.03125 
Q 45.3125 15.671875 45.3125 23.6875 
L 45.3125 54.6875 
L 54.296875 54.6875 
L 54.296875 0 
L 45.3125 0 
L 45.3125 8.40625 
Q 42.046875 3.421875 37.71875 1 
Q 33.40625 -1.421875 27.6875 -1.421875 
Q 18.265625 -1.421875 13.375 4.4375 
Q 8.5 10.296875 8.5 21.578125 
z
M 31.109375 56 
z
" id="DejaVuSans-117"/>
       <path d="M 18.3125 70.21875 
L 18.3125 54.6875 
L 36.8125 54.6875 
L 36.8125 47.703125 
L 18.3125 47.703125 
L 18.3125 18.015625 
Q 18.3125 11.328125 20.140625 9.421875 
Q 21.96875 7.515625 27.59375 7.515625 
L 36.8125 7.515625 
L 36.8125 0 
L 27.59375 0 
Q 17.1875 0 13.234375 3.875 
Q 9.28125 7.765625 9.28125 18.015625 
L 9.28125 47.703125 
L 2.6875 47.703125 
L 2.6875 54.6875 
L 9.28125 54.6875 
L 9.28125 70.21875 
z
" id="DejaVuSans-116"/>
       <path d="M 9.078125 75.984375 
L 18.109375 75.984375 
L 18.109375 31.109375 
L 44.921875 54.6875 
L 56.390625 54.6875 
L 27.390625 29.109375 
L 57.625 0 
L 45.90625 0 
L 18.109375 26.703125 
L 18.109375 0 
L 9.078125 0 
z
" id="DejaVuSans-107"/>
       <path d="M 34.28125 27.484375 
Q 23.390625 27.484375 19.1875 25 
Q 14.984375 22.515625 14.984375 16.5 
Q 14.984375 11.71875 18.140625 8.90625 
Q 21.296875 6.109375 26.703125 6.109375 
Q 34.1875 6.109375 38.703125 11.40625 
Q 43.21875 16.703125 43.21875 25.484375 
L 43.21875 27.484375 
z
M 52.203125 31.203125 
L 52.203125 0 
L 43.21875 0 
L 43.21875 8.296875 
Q 40.140625 3.328125 35.546875 0.953125 
Q 30.953125 -1.421875 24.3125 -1.421875 
Q 15.921875 -1.421875 10.953125 3.296875 
Q 6 8.015625 6 15.921875 
Q 6 25.140625 12.171875 29.828125 
Q 18.359375 34.515625 30.609375 34.515625 
L 43.21875 34.515625 
L 43.21875 35.40625 
Q 43.21875 41.609375 39.140625 45 
Q 35.0625 48.390625 27.6875 48.390625 
Q 23 48.390625 18.546875 47.265625 
Q 14.109375 46.140625 10.015625 43.890625 
L 10.015625 52.203125 
Q 14.9375 54.109375 19.578125 55.046875 
Q 24.21875 56 28.609375 56 
Q 40.484375 56 46.34375 49.84375 
Q 52.203125 43.703125 52.203125 31.203125 
z
" id="DejaVuSans-97"/>
       <path id="DejaVuSans-32"/>
       <path d="M 34.1875 63.1875 
L 20.796875 26.90625 
L 47.609375 26.90625 
z
M 28.609375 72.90625 
L 39.796875 72.90625 
L 67.578125 0 
L 57.328125 0 
L 50.6875 18.703125 
L 17.828125 18.703125 
L 11.1875 0 
L 0.78125 0 
z
" id="DejaVuSans-65"/>
       <path d="M 41.109375 46.296875 
Q 39.59375 47.171875 37.8125 47.578125 
Q 36.03125 48 33.890625 48 
Q 26.265625 48 22.1875 43.046875 
Q 18.109375 38.09375 18.109375 28.8125 
L 18.109375 0 
L 9.078125 0 
L 9.078125 54.6875 
L 18.109375 54.6875 
L 18.109375 46.1875 
Q 20.953125 51.171875 25.484375 53.578125 
Q 30.03125 56 36.53125 56 
Q 37.453125 56 38.578125 55.875 
Q 39.703125 55.765625 41.0625 55.515625 
z
" id="DejaVuSans-114"/>
       <path d="M 9.421875 54.6875 
L 18.40625 54.6875 
L 18.40625 0 
L 9.421875 0 
z
M 9.421875 75.984375 
L 18.40625 75.984375 
L 18.40625 64.59375 
L 9.421875 64.59375 
z
" id="DejaVuSans-105"/>
       <path d="M 45.40625 46.390625 
L 45.40625 75.984375 
L 54.390625 75.984375 
L 54.390625 0 
L 45.40625 0 
L 45.40625 8.203125 
Q 42.578125 3.328125 38.25 0.953125 
Q 33.9375 -1.421875 27.875 -1.421875 
Q 17.96875 -1.421875 11.734375 6.484375 
Q 5.515625 14.40625 5.515625 27.296875 
Q 5.515625 40.1875 11.734375 48.09375 
Q 17.96875 56 27.875 56 
Q 33.9375 56 38.25 53.625 
Q 42.578125 51.265625 45.40625 46.390625 
z
M 14.796875 27.296875 
Q 14.796875 17.390625 18.875 11.75 
Q 22.953125 6.109375 30.078125 6.109375 
Q 37.203125 6.109375 41.296875 11.75 
Q 45.40625 17.390625 45.40625 27.296875 
Q 45.40625 37.203125 41.296875 42.84375 
Q 37.203125 48.484375 30.078125 48.484375 
Q 22.953125 48.484375 18.875 42.84375 
Q 14.796875 37.203125 14.796875 27.296875 
z
" id="DejaVuSans-100"/>
       <path d="M 9.421875 54.6875 
L 18.40625 54.6875 
L 18.40625 -0.984375 
Q 18.40625 -11.421875 14.421875 -16.109375 
Q 10.453125 -20.796875 1.609375 -20.796875 
L -1.8125 -20.796875 
L -1.8125 -13.1875 
L 0.59375 -13.1875 
Q 5.71875 -13.1875 7.5625 -10.8125 
Q 9.421875 -8.453125 9.421875 -0.984375 
z
M 9.421875 75.984375 
L 18.40625 75.984375 
L 18.40625 64.59375 
L 9.421875 64.59375 
z
" id="DejaVuSans-106"/>
      </defs>
      <g transform="translate(41.819289 316.295625)rotate(-90)scale(0.1 -0.1)">
       <use xlink:href="#DejaVuSans-84"/>
       <use x="60.849609" xlink:href="#DejaVuSans-117"/>
       <use x="124.228516" xlink:href="#DejaVuSans-116"/>
       <use x="163.4375" xlink:href="#DejaVuSans-117"/>
       <use x="226.816406" xlink:href="#DejaVuSans-107"/>
       <use x="284.710938" xlink:href="#DejaVuSans-97"/>
       <use x="345.990234" xlink:href="#DejaVuSans-32"/>
       <use x="377.777344" xlink:href="#DejaVuSans-65"/>
       <use x="446.185547" xlink:href="#DejaVuSans-114"/>
       <use x="487.298828" xlink:href="#DejaVuSans-105"/>
       <use x="515.082031" xlink:href="#DejaVuSans-97"/>
       <use x="576.361328" xlink:href="#DejaVuSans-100"/>
       <use x="639.837891" xlink:href="#DejaVuSans-106"/>
       <use x="667.621094" xlink:href="#DejaVuSans-105"/>
      </g>
     </g>
    </g>
    <g id="xtick_2">
     <g id="line2d_2">
      <g>
       <use style="stroke:#000000;stroke-width:0.8;" x="50.604741" xlink:href="#meb77a2d6bc" y="239.758125"/>
      </g>
     </g>
     <g id="text_2">
      <!-- Kadarsah Suryadi -->
      <defs>
       <path d="M 9.8125 72.90625 
L 19.671875 72.90625 
L 19.671875 42.09375 
L 52.390625 72.90625 
L 65.09375 72.90625 
L 28.90625 38.921875 
L 67.671875 0 
L 54.6875 0 
L 19.671875 35.109375 
L 19.671875 0 
L 9.8125 0 
z
" id="DejaVuSans-75"/>
       <path d="M 44.28125 53.078125 
L 44.28125 44.578125 
Q 40.484375 46.53125 36.375 47.5 
Q 32.28125 48.484375 27.875 48.484375 
Q 21.1875 48.484375 17.84375 46.4375 
Q 14.5 44.390625 14.5 40.28125 
Q 14.5 37.15625 16.890625 35.375 
Q 19.28125 33.59375 26.515625 31.984375 
L 29.59375 31.296875 
Q 39.15625 29.25 43.1875 25.515625 
Q 47.21875 21.78125 47.21875 15.09375 
Q 47.21875 7.46875 41.1875 3.015625 
Q 35.15625 -1.421875 24.609375 -1.421875 
Q 20.21875 -1.421875 15.453125 -0.5625 
Q 10.6875 0.296875 5.421875 2 
L 5.421875 11.28125 
Q 10.40625 8.6875 15.234375 7.390625 
Q 20.0625 6.109375 24.8125 6.109375 
Q 31.15625 6.109375 34.5625 8.28125 
Q 37.984375 10.453125 37.984375 14.40625 
Q 37.984375 18.0625 35.515625 20.015625 
Q 33.0625 21.96875 24.703125 23.78125 
L 21.578125 24.515625 
Q 13.234375 26.265625 9.515625 29.90625 
Q 5.8125 33.546875 5.8125 39.890625 
Q 5.8125 47.609375 11.28125 51.796875 
Q 16.75 56 26.8125 56 
Q 31.78125 56 36.171875 55.265625 
Q 40.578125 54.546875 44.28125 53.078125 
z
" id="DejaVuSans-115"/>
       <path d="M 54.890625 33.015625 
L 54.890625 0 
L 45.90625 0 
L 45.90625 32.71875 
Q 45.90625 40.484375 42.875 44.328125 
Q 39.84375 48.1875 33.796875 48.1875 
Q 26.515625 48.1875 22.3125 43.546875 
Q 18.109375 38.921875 18.109375 30.90625 
L 18.109375 0 
L 9.078125 0 
L 9.078125 75.984375 
L 18.109375 75.984375 
L 18.109375 46.1875 
Q 21.34375 51.125 25.703125 53.5625 
Q 30.078125 56 35.796875 56 
Q 45.21875 56 50.046875 50.171875 
Q 54.890625 44.34375 54.890625 33.015625 
z
" id="DejaVuSans-104"/>
       <path d="M 53.515625 70.515625 
L 53.515625 60.890625 
Q 47.90625 63.578125 42.921875 64.890625 
Q 37.9375 66.21875 33.296875 66.21875 
Q 25.25 66.21875 20.875 63.09375 
Q 16.5 59.96875 16.5 54.203125 
Q 16.5 49.359375 19.40625 46.890625 
Q 22.3125 44.4375 30.421875 42.921875 
L 36.375 41.703125 
Q 47.40625 39.59375 52.65625 34.296875 
Q 57.90625 29 57.90625 20.125 
Q 57.90625 9.515625 50.796875 4.046875 
Q 43.703125 -1.421875 29.984375 -1.421875 
Q 24.8125 -1.421875 18.96875 -0.25 
Q 13.140625 0.921875 6.890625 3.21875 
L 6.890625 13.375 
Q 12.890625 10.015625 18.65625 8.296875 
Q 24.421875 6.59375 29.984375 6.59375 
Q 38.421875 6.59375 43.015625 9.90625 
Q 47.609375 13.234375 47.609375 19.390625 
Q 47.609375 24.75 44.3125 27.78125 
Q 41.015625 30.8125 33.5 32.328125 
L 27.484375 33.5 
Q 16.453125 35.6875 11.515625 40.375 
Q 6.59375 45.0625 6.59375 53.421875 
Q 6.59375 63.09375 13.40625 68.65625 
Q 20.21875 74.21875 32.171875 74.21875 
Q 37.3125 74.21875 42.625 73.28125 
Q 47.953125 72.359375 53.515625 70.515625 
z
" id="DejaVuSans-83"/>
       <path d="M 32.171875 -5.078125 
Q 28.375 -14.84375 24.75 -17.8125 
Q 21.140625 -20.796875 15.09375 -20.796875 
L 7.90625 -20.796875 
L 7.90625 -13.28125 
L 13.1875 -13.28125 
Q 16.890625 -13.28125 18.9375 -11.515625 
Q 21 -9.765625 23.484375 -3.21875 
L 25.09375 0.875 
L 2.984375 54.6875 
L 12.5 54.6875 
L 29.59375 11.921875 
L 46.6875 54.6875 
L 56.203125 54.6875 
z
" id="DejaVuSans-121"/>
      </defs>
      <g transform="translate(53.364116 334.853438)rotate(-90)scale(0.1 -0.1)">
       <use xlink:href="#DejaVuSans-75"/>
       <use x="65.560547" xlink:href="#DejaVuSans-97"/>
       <use x="126.839844" xlink:href="#DejaVuSans-100"/>
       <use x="190.316406" xlink:href="#DejaVuSans-97"/>
       <use x="251.595703" xlink:href="#DejaVuSans-114"/>
       <use x="292.708984" xlink:href="#DejaVuSans-115"/>
       <use x="344.808594" xlink:href="#DejaVuSans-97"/>
       <use x="406.087891" xlink:href="#DejaVuSans-104"/>
       <use x="469.466797" xlink:href="#DejaVuSans-32"/>
       <use x="501.253906" xlink:href="#DejaVuSans-83"/>
       <use x="564.730469" xlink:href="#DejaVuSans-117"/>
       <use x="628.109375" xlink:href="#DejaVuSans-114"/>
       <use x="669.222656" xlink:href="#DejaVuSans-121"/>
       <use x="728.402344" xlink:href="#DejaVuSans-97"/>
       <use x="789.681641" xlink:href="#DejaVuSans-100"/>
       <use x="853.158203" xlink:href="#DejaVuSans-105"/>
      </g>
     </g>
    </g>
    <g id="xtick_3">
     <g id="line2d_3">
      <g>
       <use style="stroke:#000000;stroke-width:0.8;" x="62.149569" xlink:href="#meb77a2d6bc" y="239.758125"/>
      </g>
     </g>
     <g id="text_3">
      <!-- Acep Purqon -->
      <defs>
       <path d="M 48.78125 52.59375 
L 48.78125 44.1875 
Q 44.96875 46.296875 41.140625 47.34375 
Q 37.3125 48.390625 33.40625 48.390625 
Q 24.65625 48.390625 19.8125 42.84375 
Q 14.984375 37.3125 14.984375 27.296875 
Q 14.984375 17.28125 19.8125 11.734375 
Q 24.65625 6.203125 33.40625 6.203125 
Q 37.3125 6.203125 41.140625 7.25 
Q 44.96875 8.296875 48.78125 10.40625 
L 48.78125 2.09375 
Q 45.015625 0.34375 40.984375 -0.53125 
Q 36.96875 -1.421875 32.421875 -1.421875 
Q 20.0625 -1.421875 12.78125 6.34375 
Q 5.515625 14.109375 5.515625 27.296875 
Q 5.515625 40.671875 12.859375 48.328125 
Q 20.21875 56 33.015625 56 
Q 37.15625 56 41.109375 55.140625 
Q 45.0625 54.296875 48.78125 52.59375 
z
" id="DejaVuSans-99"/>
       <path d="M 56.203125 29.59375 
L 56.203125 25.203125 
L 14.890625 25.203125 
Q 15.484375 15.921875 20.484375 11.0625 
Q 25.484375 6.203125 34.421875 6.203125 
Q 39.59375 6.203125 44.453125 7.46875 
Q 49.3125 8.734375 54.109375 11.28125 
L 54.109375 2.78125 
Q 49.265625 0.734375 44.1875 -0.34375 
Q 39.109375 -1.421875 33.890625 -1.421875 
Q 20.796875 -1.421875 13.15625 6.1875 
Q 5.515625 13.8125 5.515625 26.8125 
Q 5.515625 40.234375 12.765625 48.109375 
Q 20.015625 56 32.328125 56 
Q 43.359375 56 49.78125 48.890625 
Q 56.203125 41.796875 56.203125 29.59375 
z
M 47.21875 32.234375 
Q 47.125 39.59375 43.09375 43.984375 
Q 39.0625 48.390625 32.421875 48.390625 
Q 24.90625 48.390625 20.390625 44.140625 
Q 15.875 39.890625 15.1875 32.171875 
z
" id="DejaVuSans-101"/>
       <path d="M 18.109375 8.203125 
L 18.109375 -20.796875 
L 9.078125 -20.796875 
L 9.078125 54.6875 
L 18.109375 54.6875 
L 18.109375 46.390625 
Q 20.953125 51.265625 25.265625 53.625 
Q 29.59375 56 35.59375 56 
Q 45.5625 56 51.78125 48.09375 
Q 58.015625 40.1875 58.015625 27.296875 
Q 58.015625 14.40625 51.78125 6.484375 
Q 45.5625 -1.421875 35.59375 -1.421875 
Q 29.59375 -1.421875 25.265625 0.953125 
Q 20.953125 3.328125 18.109375 8.203125 
z
M 48.6875 27.296875 
Q 48.6875 37.203125 44.609375 42.84375 
Q 40.53125 48.484375 33.40625 48.484375 
Q 26.265625 48.484375 22.1875 42.84375 
Q 18.109375 37.203125 18.109375 27.296875 
Q 18.109375 17.390625 22.1875 11.75 
Q 26.265625 6.109375 33.40625 6.109375 
Q 40.53125 6.109375 44.609375 11.75 
Q 48.6875 17.390625 48.6875 27.296875 
z
" id="DejaVuSans-112"/>
       <path d="M 19.671875 64.796875 
L 19.671875 37.40625 
L 32.078125 37.40625 
Q 38.96875 37.40625 42.71875 40.96875 
Q 46.484375 44.53125 46.484375 51.125 
Q 46.484375 57.671875 42.71875 61.234375 
Q 38.96875 64.796875 32.078125 64.796875 
z
M 9.8125 72.90625 
L 32.078125 72.90625 
Q 44.34375 72.90625 50.609375 67.359375 
Q 56.890625 61.8125 56.890625 51.125 
Q 56.890625 40.328125 50.609375 34.8125 
Q 44.34375 29.296875 32.078125 29.296875 
L 19.671875 29.296875 
L 19.671875 0 
L 9.8125 0 
z
" id="DejaVuSans-80"/>
       <path d="M 14.796875 27.296875 
Q 14.796875 17.390625 18.875 11.75 
Q 22.953125 6.109375 30.078125 6.109375 
Q 37.203125 6.109375 41.296875 11.75 
Q 45.40625 17.390625 45.40625 27.296875 
Q 45.40625 37.203125 41.296875 42.84375 
Q 37.203125 48.484375 30.078125 48.484375 
Q 22.953125 48.484375 18.875 42.84375 
Q 14.796875 37.203125 14.796875 27.296875 
z
M 45.40625 8.203125 
Q 42.578125 3.328125 38.25 0.953125 
Q 33.9375 -1.421875 27.875 -1.421875 
Q 17.96875 -1.421875 11.734375 6.484375 
Q 5.515625 14.40625 5.515625 27.296875 
Q 5.515625 40.1875 11.734375 48.09375 
Q 17.96875 56 27.875 56 
Q 33.9375 56 38.25 53.625 
Q 42.578125 51.265625 45.40625 46.390625 
L 45.40625 54.6875 
L 54.390625 54.6875 
L 54.390625 -20.796875 
L 45.40625 -20.796875 
z
" id="DejaVuSans-113"/>
       <path d="M 30.609375 48.390625 
Q 23.390625 48.390625 19.1875 42.75 
Q 14.984375 37.109375 14.984375 27.296875 
Q 14.984375 17.484375 19.15625 11.84375 
Q 23.34375 6.203125 30.609375 6.203125 
Q 37.796875 6.203125 41.984375 11.859375 
Q 46.1875 17.53125 46.1875 27.296875 
Q 46.1875 37.015625 41.984375 42.703125 
Q 37.796875 48.390625 30.609375 48.390625 
z
M 30.609375 56 
Q 42.328125 56 49.015625 48.375 
Q 55.71875 40.765625 55.71875 27.296875 
Q 55.71875 13.875 49.015625 6.21875 
Q 42.328125 -1.421875 30.609375 -1.421875 
Q 18.84375 -1.421875 12.171875 6.21875 
Q 5.515625 13.875 5.515625 27.296875 
Q 5.515625 40.765625 12.171875 48.375 
Q 18.84375 56 30.609375 56 
z
" id="DejaVuSans-111"/>
       <path d="M 54.890625 33.015625 
L 54.890625 0 
L 45.90625 0 
L 45.90625 32.71875 
Q 45.90625 40.484375 42.875 44.328125 
Q 39.84375 48.1875 33.796875 48.1875 
Q 26.515625 48.1875 22.3125 43.546875 
Q 18.109375 38.921875 18.109375 30.90625 
L 18.109375 0 
L 9.078125 0 
L 9.078125 54.6875 
L 18.109375 54.6875 
L 18.109375 46.1875 
Q 21.34375 51.125 25.703125 53.5625 
Q 30.078125 56 35.796875 56 
Q 45.21875 56 50.046875 50.171875 
Q 54.890625 44.34375 54.890625 33.015625 
z
" id="DejaVuSans-110"/>
      </defs>
      <g transform="translate(64.908944 310.055)rotate(-90)scale(0.1 -0.1)">
       <use xlink:href="#DejaVuSans-65"/>
       <use x="68.392578" xlink:href="#DejaVuSans-99"/>
       <use x="123.373047" xlink:href="#DejaVuSans-101"/>
       <use x="184.896484" xlink:href="#DejaVuSans-112"/>
       <use x="248.373047" xlink:href="#DejaVuSans-32"/>
       <use x="280.160156" xlink:href="#DejaVuSans-80"/>
       <use x="340.447266" xlink:href="#DejaVuSans-117"/>
       <use x="403.826172" xlink:href="#DejaVuSans-114"/>
       <use x="444.923828" xlink:href="#DejaVuSans-113"/>
       <use x="508.400391" xlink:href="#DejaVuSans-111"/>
       <use x="569.582031" xlink:href="#DejaVuSans-110"/>
      </g>
     </g>
    </g>
    <g id="xtick_4">
     <g id="line2d_4">
      <g>
       <use style="stroke:#000000;stroke-width:0.8;" x="73.694397" xlink:href="#meb77a2d6bc" y="239.758125"/>
      </g>
     </g>
     <g id="text_4">
      <!-- Edy Tri Baskoro -->
      <defs>
       <path d="M 9.8125 72.90625 
L 55.90625 72.90625 
L 55.90625 64.59375 
L 19.671875 64.59375 
L 19.671875 43.015625 
L 54.390625 43.015625 
L 54.390625 34.71875 
L 19.671875 34.71875 
L 19.671875 8.296875 
L 56.78125 8.296875 
L 56.78125 0 
L 9.8125 0 
z
" id="DejaVuSans-69"/>
       <path d="M 19.671875 34.8125 
L 19.671875 8.109375 
L 35.5 8.109375 
Q 43.453125 8.109375 47.28125 11.40625 
Q 51.125 14.703125 51.125 21.484375 
Q 51.125 28.328125 47.28125 31.5625 
Q 43.453125 34.8125 35.5 34.8125 
z
M 19.671875 64.796875 
L 19.671875 42.828125 
L 34.28125 42.828125 
Q 41.5 42.828125 45.03125 45.53125 
Q 48.578125 48.25 48.578125 53.8125 
Q 48.578125 59.328125 45.03125 62.0625 
Q 41.5 64.796875 34.28125 64.796875 
z
M 9.8125 72.90625 
L 35.015625 72.90625 
Q 46.296875 72.90625 52.390625 68.21875 
Q 58.5 63.53125 58.5 54.890625 
Q 58.5 48.1875 55.375 44.234375 
Q 52.25 40.28125 46.1875 39.3125 
Q 53.46875 37.75 57.5 32.78125 
Q 61.53125 27.828125 61.53125 20.40625 
Q 61.53125 10.640625 54.890625 5.3125 
Q 48.25 0 35.984375 0 
L 9.8125 0 
z
" id="DejaVuSans-66"/>
      </defs>
      <g transform="translate(76.453772 325.005)rotate(-90)scale(0.1 -0.1)">
       <use xlink:href="#DejaVuSans-69"/>
       <use x="63.183594" xlink:href="#DejaVuSans-100"/>
       <use x="126.660156" xlink:href="#DejaVuSans-121"/>
       <use x="185.839844" xlink:href="#DejaVuSans-32"/>
       <use x="217.626953" xlink:href="#DejaVuSans-84"/>
       <use x="278.492188" xlink:href="#DejaVuSans-114"/>
       <use x="319.605469" xlink:href="#DejaVuSans-105"/>
       <use x="347.388672" xlink:href="#DejaVuSans-32"/>
       <use x="379.175781" xlink:href="#DejaVuSans-66"/>
       <use x="447.779297" xlink:href="#DejaVuSans-97"/>
       <use x="509.058594" xlink:href="#DejaVuSans-115"/>
       <use x="561.158203" xlink:href="#DejaVuSans-107"/>
       <use x="619.021484" xlink:href="#DejaVuSans-111"/>
       <use x="680.203125" xlink:href="#DejaVuSans-114"/>
       <use x="721.285156" xlink:href="#DejaVuSans-111"/>
      </g>
     </g>
    </g>
    <g id="xtick_5">
     <g id="line2d_5">
      <g>
       <use style="stroke:#000000;stroke-width:0.8;" x="85.239224" xlink:href="#meb77a2d6bc" y="239.758125"/>
      </g>
     </g>
     <g id="text_5">
      <!-- Dicky Rezady Munaf -->
      <defs>
       <path d="M 19.671875 64.796875 
L 19.671875 8.109375 
L 31.59375 8.109375 
Q 46.6875 8.109375 53.6875 14.9375 
Q 60.6875 21.78125 60.6875 36.53125 
Q 60.6875 51.171875 53.6875 57.984375 
Q 46.6875 64.796875 31.59375 64.796875 
z
M 9.8125 72.90625 
L 30.078125 72.90625 
Q 51.265625 72.90625 61.171875 64.09375 
Q 71.09375 55.28125 71.09375 36.53125 
Q 71.09375 17.671875 61.125 8.828125 
Q 51.171875 0 30.078125 0 
L 9.8125 0 
z
" id="DejaVuSans-68"/>
       <path d="M 44.390625 34.1875 
Q 47.5625 33.109375 50.5625 29.59375 
Q 53.5625 26.078125 56.59375 19.921875 
L 66.609375 0 
L 56 0 
L 46.6875 18.703125 
Q 43.0625 26.03125 39.671875 28.421875 
Q 36.28125 30.8125 30.421875 30.8125 
L 19.671875 30.8125 
L 19.671875 0 
L 9.8125 0 
L 9.8125 72.90625 
L 32.078125 72.90625 
Q 44.578125 72.90625 50.734375 67.671875 
Q 56.890625 62.453125 56.890625 51.90625 
Q 56.890625 45.015625 53.6875 40.46875 
Q 50.484375 35.9375 44.390625 34.1875 
z
M 19.671875 64.796875 
L 19.671875 38.921875 
L 32.078125 38.921875 
Q 39.203125 38.921875 42.84375 42.21875 
Q 46.484375 45.515625 46.484375 51.90625 
Q 46.484375 58.296875 42.84375 61.546875 
Q 39.203125 64.796875 32.078125 64.796875 
z
" id="DejaVuSans-82"/>
       <path d="M 5.515625 54.6875 
L 48.1875 54.6875 
L 48.1875 46.484375 
L 14.40625 7.171875 
L 48.1875 7.171875 
L 48.1875 0 
L 4.296875 0 
L 4.296875 8.203125 
L 38.09375 47.515625 
L 5.515625 47.515625 
z
" id="DejaVuSans-122"/>
       <path d="M 9.8125 72.90625 
L 24.515625 72.90625 
L 43.109375 23.296875 
L 61.8125 72.90625 
L 76.515625 72.90625 
L 76.515625 0 
L 66.890625 0 
L 66.890625 64.015625 
L 48.09375 14.015625 
L 38.1875 14.015625 
L 19.390625 64.015625 
L 19.390625 0 
L 9.8125 0 
z
" id="DejaVuSans-77"/>
       <path d="M 37.109375 75.984375 
L 37.109375 68.5 
L 28.515625 68.5 
Q 23.6875 68.5 21.796875 66.546875 
Q 19.921875 64.59375 19.921875 59.515625 
L 19.921875 54.6875 
L 34.71875 54.6875 
L 34.71875 47.703125 
L 19.921875 47.703125 
L 19.921875 0 
L 10.890625 0 
L 10.890625 47.703125 
L 2.296875 47.703125 
L 2.296875 54.6875 
L 10.890625 54.6875 
L 10.890625 58.5 
Q 10.890625 67.625 15.140625 71.796875 
Q 19.390625 75.984375 28.609375 75.984375 
z
" id="DejaVuSans-102"/>
      </defs>
      <g transform="translate(87.998599 348.48625)rotate(-90)scale(0.1 -0.1)">
       <use xlink:href="#DejaVuSans-68"/>
       <use x="77.001953" xlink:href="#DejaVuSans-105"/>
       <use x="104.785156" xlink:href="#DejaVuSans-99"/>
       <use x="159.765625" xlink:href="#DejaVuSans-107"/>
       <use x="217.628906" xlink:href="#DejaVuSans-121"/>
       <use x="276.808594" xlink:href="#DejaVuSans-32"/>
       <use x="308.595703" xlink:href="#DejaVuSans-82"/>
       <use x="378.015625" xlink:href="#DejaVuSans-101"/>
       <use x="439.539062" xlink:href="#DejaVuSans-122"/>
       <use x="492.029297" xlink:href="#DejaVuSans-97"/>
       <use x="553.308594" xlink:href="#DejaVuSans-100"/>
       <use x="616.785156" xlink:href="#DejaVuSans-121"/>
       <use x="675.964844" xlink:href="#DejaVuSans-32"/>
       <use x="707.751953" xlink:href="#DejaVuSans-77"/>
       <use x="794.03125" xlink:href="#DejaVuSans-117"/>
       <use x="857.410156" xlink:href="#DejaVuSans-110"/>
       <use x="920.789062" xlink:href="#DejaVuSans-97"/>
       <use x="982.068359" xlink:href="#DejaVuSans-102"/>
      </g>
     </g>
    </g>
    <g id="xtick_6">
     <g id="line2d_6">
      <g>
       <use style="stroke:#000000;stroke-width:0.8;" x="96.784052" xlink:href="#meb77a2d6bc" y="239.758125"/>
      </g>
     </g>
     <g id="text_6">
      <!-- Khairurrijal -->
      <defs>
       <path d="M 9.421875 75.984375 
L 18.40625 75.984375 
L 18.40625 0 
L 9.421875 0 
z
" id="DejaVuSans-108"/>
      </defs>
      <g transform="translate(99.543427 301.690938)rotate(-90)scale(0.1 -0.1)">
       <use xlink:href="#DejaVuSans-75"/>
       <use x="65.576172" xlink:href="#DejaVuSans-104"/>
       <use x="128.955078" xlink:href="#DejaVuSans-97"/>
       <use x="190.234375" xlink:href="#DejaVuSans-105"/>
       <use x="218.017578" xlink:href="#DejaVuSans-114"/>
       <use x="259.130859" xlink:href="#DejaVuSans-117"/>
       <use x="322.509766" xlink:href="#DejaVuSans-114"/>
       <use x="363.607422" xlink:href="#DejaVuSans-114"/>
       <use x="404.720703" xlink:href="#DejaVuSans-105"/>
       <use x="432.503906" xlink:href="#DejaVuSans-106"/>
       <use x="460.287109" xlink:href="#DejaVuSans-97"/>
       <use x="521.566406" xlink:href="#DejaVuSans-108"/>
      </g>
     </g>
    </g>
    <g id="xtick_7">
     <g id="line2d_7">
      <g>
       <use style="stroke:#000000;stroke-width:0.8;" x="108.328879" xlink:href="#meb77a2d6bc" y="239.758125"/>
      </g>
     </g>
     <g id="text_7">
      <!-- Dewi Larasati -->
      <defs>
       <path d="M 4.203125 54.6875 
L 13.1875 54.6875 
L 24.421875 12.015625 
L 35.59375 54.6875 
L 46.1875 54.6875 
L 57.421875 12.015625 
L 68.609375 54.6875 
L 77.59375 54.6875 
L 63.28125 0 
L 52.6875 0 
L 40.921875 44.828125 
L 29.109375 0 
L 18.5 0 
z
" id="DejaVuSans-119"/>
       <path d="M 9.8125 72.90625 
L 19.671875 72.90625 
L 19.671875 8.296875 
L 55.171875 8.296875 
L 55.171875 0 
L 9.8125 0 
z
" id="DejaVuSans-76"/>
      </defs>
      <g transform="translate(111.088254 314.720625)rotate(-90)scale(0.1 -0.1)">
       <use xlink:href="#DejaVuSans-68"/>
       <use x="77.001953" xlink:href="#DejaVuSans-101"/>
       <use x="138.525391" xlink:href="#DejaVuSans-119"/>
       <use x="220.3125" xlink:href="#DejaVuSans-105"/>
       <use x="248.095703" xlink:href="#DejaVuSans-32"/>
       <use x="279.882812" xlink:href="#DejaVuSans-76"/>
       <use x="335.595703" xlink:href="#DejaVuSans-97"/>
       <use x="396.875" xlink:href="#DejaVuSans-114"/>
       <use x="437.988281" xlink:href="#DejaVuSans-97"/>
       <use x="499.267578" xlink:href="#DejaVuSans-115"/>
       <use x="551.367188" xlink:href="#DejaVuSans-97"/>
       <use x="612.646484" xlink:href="#DejaVuSans-116"/>
       <use x="651.855469" xlink:href="#DejaVuSans-105"/>
      </g>
     </g>
    </g>
    <g id="xtick_8">
     <g id="line2d_8">
      <g>
       <use style="stroke:#000000;stroke-width:0.8;" x="119.873707" xlink:href="#meb77a2d6bc" y="239.758125"/>
      </g>
     </g>
     <g id="text_8">
      <!-- Benyamin Sapiie -->
      <defs>
       <path d="M 52 44.1875 
Q 55.375 50.25 60.0625 53.125 
Q 64.75 56 71.09375 56 
Q 79.640625 56 84.28125 50.015625 
Q 88.921875 44.046875 88.921875 33.015625 
L 88.921875 0 
L 79.890625 0 
L 79.890625 32.71875 
Q 79.890625 40.578125 77.09375 44.375 
Q 74.3125 48.1875 68.609375 48.1875 
Q 61.625 48.1875 57.5625 43.546875 
Q 53.515625 38.921875 53.515625 30.90625 
L 53.515625 0 
L 44.484375 0 
L 44.484375 32.71875 
Q 44.484375 40.625 41.703125 44.40625 
Q 38.921875 48.1875 33.109375 48.1875 
Q 26.21875 48.1875 22.15625 43.53125 
Q 18.109375 38.875 18.109375 30.90625 
L 18.109375 0 
L 9.078125 0 
L 9.078125 54.6875 
L 18.109375 54.6875 
L 18.109375 46.1875 
Q 21.1875 51.21875 25.484375 53.609375 
Q 29.78125 56 35.6875 56 
Q 41.65625 56 45.828125 52.96875 
Q 50 49.953125 52 44.1875 
z
" id="DejaVuSans-109"/>
      </defs>
      <g transform="translate(122.633082 330.725313)rotate(-90)scale(0.1 -0.1)">
       <use xlink:href="#DejaVuSans-66"/>
       <use x="68.603516" xlink:href="#DejaVuSans-101"/>
       <use x="130.126953" xlink:href="#DejaVuSans-110"/>
       <use x="193.505859" xlink:href="#DejaVuSans-121"/>
       <use x="252.685547" xlink:href="#DejaVuSans-97"/>
       <use x="313.964844" xlink:href="#DejaVuSans-109"/>
       <use x="411.376953" xlink:href="#DejaVuSans-105"/>
       <use x="439.160156" xlink:href="#DejaVuSans-110"/>
       <use x="502.539062" xlink:href="#DejaVuSans-32"/>
       <use x="534.326172" xlink:href="#DejaVuSans-83"/>
       <use x="597.802734" xlink:href="#DejaVuSans-97"/>
       <use x="659.082031" xlink:href="#DejaVuSans-112"/>
       <use x="722.558594" xlink:href="#DejaVuSans-105"/>
       <use x="750.341797" xlink:href="#DejaVuSans-105"/>
       <use x="778.125" xlink:href="#DejaVuSans-101"/>
      </g>
     </g>
    </g>
    <g id="xtick_9">
     <g id="line2d_9">
      <g>
       <use style="stroke:#000000;stroke-width:0.8;" x="131.418534" xlink:href="#meb77a2d6bc" y="239.758125"/>
      </g>
     </g>
     <g id="text_9">
      <!-- Sigit Puji Santosa -->
      <defs>
       <path d="M 45.40625 27.984375 
Q 45.40625 37.75 41.375 43.109375 
Q 37.359375 48.484375 30.078125 48.484375 
Q 22.859375 48.484375 18.828125 43.109375 
Q 14.796875 37.75 14.796875 27.984375 
Q 14.796875 18.265625 18.828125 12.890625 
Q 22.859375 7.515625 30.078125 7.515625 
Q 37.359375 7.515625 41.375 12.890625 
Q 45.40625 18.265625 45.40625 27.984375 
z
M 54.390625 6.78125 
Q 54.390625 -7.171875 48.1875 -13.984375 
Q 42 -20.796875 29.203125 -20.796875 
Q 24.46875 -20.796875 20.265625 -20.09375 
Q 16.0625 -19.390625 12.109375 -17.921875 
L 12.109375 -9.1875 
Q 16.0625 -11.328125 19.921875 -12.34375 
Q 23.78125 -13.375 27.78125 -13.375 
Q 36.625 -13.375 41.015625 -8.765625 
Q 45.40625 -4.15625 45.40625 5.171875 
L 45.40625 9.625 
Q 42.625 4.78125 38.28125 2.390625 
Q 33.9375 0 27.875 0 
Q 17.828125 0 11.671875 7.65625 
Q 5.515625 15.328125 5.515625 27.984375 
Q 5.515625 40.671875 11.671875 48.328125 
Q 17.828125 56 27.875 56 
Q 33.9375 56 38.28125 53.609375 
Q 42.625 51.21875 45.40625 46.390625 
L 45.40625 54.6875 
L 54.390625 54.6875 
z
" id="DejaVuSans-103"/>
      </defs>
      <g transform="translate(134.177909 333.400313)rotate(-90)scale(0.1 -0.1)">
       <use xlink:href="#DejaVuSans-83"/>
       <use x="63.476562" xlink:href="#DejaVuSans-105"/>
       <use x="91.259766" xlink:href="#DejaVuSans-103"/>
       <use x="154.736328" xlink:href="#DejaVuSans-105"/>
       <use x="182.519531" xlink:href="#DejaVuSans-116"/>
       <use x="221.728516" xlink:href="#DejaVuSans-32"/>
       <use x="253.515625" xlink:href="#DejaVuSans-80"/>
       <use x="313.802734" xlink:href="#DejaVuSans-117"/>
       <use x="377.181641" xlink:href="#DejaVuSans-106"/>
       <use x="404.964844" xlink:href="#DejaVuSans-105"/>
       <use x="432.748047" xlink:href="#DejaVuSans-32"/>
       <use x="464.535156" xlink:href="#DejaVuSans-83"/>
       <use x="528.011719" xlink:href="#DejaVuSans-97"/>
       <use x="589.291016" xlink:href="#DejaVuSans-110"/>
       <use x="652.669922" xlink:href="#DejaVuSans-116"/>
       <use x="691.878906" xlink:href="#DejaVuSans-111"/>
       <use x="753.060547" xlink:href="#DejaVuSans-115"/>
       <use x="805.160156" xlink:href="#DejaVuSans-97"/>
      </g>
     </g>
    </g>
    <g id="xtick_10">
     <g id="line2d_10">
      <g>
       <use style="stroke:#000000;stroke-width:0.8;" x="142.963362" xlink:href="#meb77a2d6bc" y="239.758125"/>
      </g>
     </g>
     <g id="text_10">
      <!-- Suhono Harso Supangkat -->
      <defs>
       <path d="M 9.8125 72.90625 
L 19.671875 72.90625 
L 19.671875 43.015625 
L 55.515625 43.015625 
L 55.515625 72.90625 
L 65.375 72.90625 
L 65.375 0 
L 55.515625 0 
L 55.515625 34.71875 
L 19.671875 34.71875 
L 19.671875 0 
L 9.8125 0 
z
" id="DejaVuSans-72"/>
      </defs>
      <g transform="translate(145.722737 373.48625)rotate(-90)scale(0.1 -0.1)">
       <use xlink:href="#DejaVuSans-83"/>
       <use x="63.476562" xlink:href="#DejaVuSans-117"/>
       <use x="126.855469" xlink:href="#DejaVuSans-104"/>
       <use x="190.234375" xlink:href="#DejaVuSans-111"/>
       <use x="251.416016" xlink:href="#DejaVuSans-110"/>
       <use x="314.794922" xlink:href="#DejaVuSans-111"/>
       <use x="375.976562" xlink:href="#DejaVuSans-32"/>
       <use x="407.763672" xlink:href="#DejaVuSans-72"/>
       <use x="482.958984" xlink:href="#DejaVuSans-97"/>
       <use x="544.238281" xlink:href="#DejaVuSans-114"/>
       <use x="585.351562" xlink:href="#DejaVuSans-115"/>
       <use x="637.451172" xlink:href="#DejaVuSans-111"/>
       <use x="698.632812" xlink:href="#DejaVuSans-32"/>
       <use x="730.419922" xlink:href="#DejaVuSans-83"/>
       <use x="793.896484" xlink:href="#DejaVuSans-117"/>
       <use x="857.275391" xlink:href="#DejaVuSans-112"/>
       <use x="920.751953" xlink:href="#DejaVuSans-97"/>
       <use x="982.03125" xlink:href="#DejaVuSans-110"/>
       <use x="1045.410156" xlink:href="#DejaVuSans-103"/>
       <use x="1108.886719" xlink:href="#DejaVuSans-107"/>
       <use x="1166.78125" xlink:href="#DejaVuSans-97"/>
       <use x="1228.060547" xlink:href="#DejaVuSans-116"/>
      </g>
     </g>
    </g>
    <g id="xtick_11">
     <g id="line2d_11">
      <g>
       <use style="stroke:#000000;stroke-width:0.8;" x="154.50819" xlink:href="#meb77a2d6bc" y="239.758125"/>
      </g>
     </g>
     <g id="text_11">
      <!-- Bambang Riyanto T -->
      <defs>
       <path d="M 48.6875 27.296875 
Q 48.6875 37.203125 44.609375 42.84375 
Q 40.53125 48.484375 33.40625 48.484375 
Q 26.265625 48.484375 22.1875 42.84375 
Q 18.109375 37.203125 18.109375 27.296875 
Q 18.109375 17.390625 22.1875 11.75 
Q 26.265625 6.109375 33.40625 6.109375 
Q 40.53125 6.109375 44.609375 11.75 
Q 48.6875 17.390625 48.6875 27.296875 
z
M 18.109375 46.390625 
Q 20.953125 51.265625 25.265625 53.625 
Q 29.59375 56 35.59375 56 
Q 45.5625 56 51.78125 48.09375 
Q 58.015625 40.1875 58.015625 27.296875 
Q 58.015625 14.40625 51.78125 6.484375 
Q 45.5625 -1.421875 35.59375 -1.421875 
Q 29.59375 -1.421875 25.265625 0.953125 
Q 20.953125 3.328125 18.109375 8.203125 
L 18.109375 0 
L 9.078125 0 
L 9.078125 75.984375 
L 18.109375 75.984375 
z
" id="DejaVuSans-98"/>
      </defs>
      <g transform="translate(157.267565 345.264375)rotate(-90)scale(0.1 -0.1)">
       <use xlink:href="#DejaVuSans-66"/>
       <use x="68.603516" xlink:href="#DejaVuSans-97"/>
       <use x="129.882812" xlink:href="#DejaVuSans-109"/>
       <use x="227.294922" xlink:href="#DejaVuSans-98"/>
       <use x="290.771484" xlink:href="#DejaVuSans-97"/>
       <use x="352.050781" xlink:href="#DejaVuSans-110"/>
       <use x="415.429688" xlink:href="#DejaVuSans-103"/>
       <use x="478.90625" xlink:href="#DejaVuSans-32"/>
       <use x="510.693359" xlink:href="#DejaVuSans-82"/>
       <use x="580.175781" xlink:href="#DejaVuSans-105"/>
       <use x="607.958984" xlink:href="#DejaVuSans-121"/>
       <use x="667.138672" xlink:href="#DejaVuSans-97"/>
       <use x="728.417969" xlink:href="#DejaVuSans-110"/>
       <use x="791.796875" xlink:href="#DejaVuSans-116"/>
       <use x="831.005859" xlink:href="#DejaVuSans-111"/>
       <use x="892.1875" xlink:href="#DejaVuSans-32"/>
       <use x="923.974609" xlink:href="#DejaVuSans-84"/>
      </g>
     </g>
    </g>
    <g id="xtick_12">
     <g id="line2d_12">
      <g>
       <use style="stroke:#000000;stroke-width:0.8;" x="166.053017" xlink:href="#meb77a2d6bc" y="239.758125"/>
      </g>
     </g>
     <g id="text_12">
      <!-- Ary Setijadi Prihatmanto -->
      <g transform="translate(168.812392 368.765938)rotate(-90)scale(0.1 -0.1)">
       <use xlink:href="#DejaVuSans-65"/>
       <use x="68.408203" xlink:href="#DejaVuSans-114"/>
       <use x="109.521484" xlink:href="#DejaVuSans-121"/>
       <use x="168.701172" xlink:href="#DejaVuSans-32"/>
       <use x="200.488281" xlink:href="#DejaVuSans-83"/>
       <use x="263.964844" xlink:href="#DejaVuSans-101"/>
       <use x="325.488281" xlink:href="#DejaVuSans-116"/>
       <use x="364.697266" xlink:href="#DejaVuSans-105"/>
       <use x="392.480469" xlink:href="#DejaVuSans-106"/>
       <use x="420.263672" xlink:href="#DejaVuSans-97"/>
       <use x="481.542969" xlink:href="#DejaVuSans-100"/>
       <use x="545.019531" xlink:href="#DejaVuSans-105"/>
       <use x="572.802734" xlink:href="#DejaVuSans-32"/>
       <use x="604.589844" xlink:href="#DejaVuSans-80"/>
       <use x="664.876953" xlink:href="#DejaVuSans-114"/>
       <use x="705.990234" xlink:href="#DejaVuSans-105"/>
       <use x="733.773438" xlink:href="#DejaVuSans-104"/>
       <use x="797.152344" xlink:href="#DejaVuSans-97"/>
       <use x="858.431641" xlink:href="#DejaVuSans-116"/>
       <use x="897.640625" xlink:href="#DejaVuSans-109"/>
       <use x="995.052734" xlink:href="#DejaVuSans-97"/>
       <use x="1056.332031" xlink:href="#DejaVuSans-110"/>
       <use x="1119.710938" xlink:href="#DejaVuSans-116"/>
       <use x="1158.919922" xlink:href="#DejaVuSans-111"/>
      </g>
     </g>
    </g>
    <g id="xtick_13">
     <g id="line2d_13">
      <g>
       <use style="stroke:#000000;stroke-width:0.8;" x="177.597845" xlink:href="#meb77a2d6bc" y="239.758125"/>
      </g>
     </g>
     <g id="text_13">
      <!-- Mikrajuddin Abdullah -->
      <g transform="translate(180.35722 352.197188)rotate(-90)scale(0.1 -0.1)">
       <use xlink:href="#DejaVuSans-77"/>
       <use x="86.279297" xlink:href="#DejaVuSans-105"/>
       <use x="114.0625" xlink:href="#DejaVuSans-107"/>
       <use x="171.972656" xlink:href="#DejaVuSans-114"/>
       <use x="213.085938" xlink:href="#DejaVuSans-97"/>
       <use x="274.365234" xlink:href="#DejaVuSans-106"/>
       <use x="302.148438" xlink:href="#DejaVuSans-117"/>
       <use x="365.527344" xlink:href="#DejaVuSans-100"/>
       <use x="429.003906" xlink:href="#DejaVuSans-100"/>
       <use x="492.480469" xlink:href="#DejaVuSans-105"/>
       <use x="520.263672" xlink:href="#DejaVuSans-110"/>
       <use x="583.642578" xlink:href="#DejaVuSans-32"/>
       <use x="615.429688" xlink:href="#DejaVuSans-65"/>
       <use x="683.837891" xlink:href="#DejaVuSans-98"/>
       <use x="747.314453" xlink:href="#DejaVuSans-100"/>
       <use x="810.791016" xlink:href="#DejaVuSans-117"/>
       <use x="874.169922" xlink:href="#DejaVuSans-108"/>
       <use x="901.953125" xlink:href="#DejaVuSans-108"/>
       <use x="929.736328" xlink:href="#DejaVuSans-97"/>
       <use x="991.015625" xlink:href="#DejaVuSans-104"/>
      </g>
     </g>
    </g>
    <g id="xtick_14">
     <g id="line2d_14">
      <g>
       <use style="stroke:#000000;stroke-width:0.8;" x="189.142672" xlink:href="#meb77a2d6bc" y="239.758125"/>
      </g>
     </g>
     <g id="text_14">
      <!-- Emir Mauludi Husni -->
      <g transform="translate(191.902047 343.581563)rotate(-90)scale(0.1 -0.1)">
       <use xlink:href="#DejaVuSans-69"/>
       <use x="63.183594" xlink:href="#DejaVuSans-109"/>
       <use x="160.595703" xlink:href="#DejaVuSans-105"/>
       <use x="188.378906" xlink:href="#DejaVuSans-114"/>
       <use x="229.492188" xlink:href="#DejaVuSans-32"/>
       <use x="261.279297" xlink:href="#DejaVuSans-77"/>
       <use x="347.558594" xlink:href="#DejaVuSans-97"/>
       <use x="408.837891" xlink:href="#DejaVuSans-117"/>
       <use x="472.216797" xlink:href="#DejaVuSans-108"/>
       <use x="500" xlink:href="#DejaVuSans-117"/>
       <use x="563.378906" xlink:href="#DejaVuSans-100"/>
       <use x="626.855469" xlink:href="#DejaVuSans-105"/>
       <use x="654.638672" xlink:href="#DejaVuSans-32"/>
       <use x="686.425781" xlink:href="#DejaVuSans-72"/>
       <use x="761.621094" xlink:href="#DejaVuSans-117"/>
       <use x="825" xlink:href="#DejaVuSans-115"/>
       <use x="877.099609" xlink:href="#DejaVuSans-110"/>
       <use x="940.478516" xlink:href="#DejaVuSans-105"/>
      </g>
     </g>
    </g>
    <g id="xtick_15">
     <g id="line2d_15">
      <g>
       <use style="stroke:#000000;stroke-width:0.8;" x="200.6875" xlink:href="#meb77a2d6bc" y="239.758125"/>
      </g>
     </g>
     <g id="text_15">
      <!-- Satria Bijaksana -->
      <g transform="translate(203.446875 327.489375)rotate(-90)scale(0.1 -0.1)">
       <use xlink:href="#DejaVuSans-83"/>
       <use x="63.476562" xlink:href="#DejaVuSans-97"/>
       <use x="124.755859" xlink:href="#DejaVuSans-116"/>
       <use x="163.964844" xlink:href="#DejaVuSans-114"/>
       <use x="205.078125" xlink:href="#DejaVuSans-105"/>
       <use x="232.861328" xlink:href="#DejaVuSans-97"/>
       <use x="294.140625" xlink:href="#DejaVuSans-32"/>
       <use x="325.927734" xlink:href="#DejaVuSans-66"/>
       <use x="394.53125" xlink:href="#DejaVuSans-105"/>
       <use x="422.314453" xlink:href="#DejaVuSans-106"/>
       <use x="450.097656" xlink:href="#DejaVuSans-97"/>
       <use x="511.376953" xlink:href="#DejaVuSans-107"/>
       <use x="569.287109" xlink:href="#DejaVuSans-115"/>
       <use x="621.386719" xlink:href="#DejaVuSans-97"/>
       <use x="682.666016" xlink:href="#DejaVuSans-110"/>
       <use x="746.044922" xlink:href="#DejaVuSans-97"/>
      </g>
     </g>
    </g>
    <g id="xtick_16">
     <g id="line2d_16">
      <g>
       <use style="stroke:#000000;stroke-width:0.8;" x="212.232328" xlink:href="#meb77a2d6bc" y="239.758125"/>
      </g>
     </g>
     <g id="text_16">
      <!-- Edwan Kardena -->
      <g transform="translate(214.991703 325.008125)rotate(-90)scale(0.1 -0.1)">
       <use xlink:href="#DejaVuSans-69"/>
       <use x="63.183594" xlink:href="#DejaVuSans-100"/>
       <use x="126.660156" xlink:href="#DejaVuSans-119"/>
       <use x="208.447266" xlink:href="#DejaVuSans-97"/>
       <use x="269.726562" xlink:href="#DejaVuSans-110"/>
       <use x="333.105469" xlink:href="#DejaVuSans-32"/>
       <use x="364.892578" xlink:href="#DejaVuSans-75"/>
       <use x="430.453125" xlink:href="#DejaVuSans-97"/>
       <use x="491.732422" xlink:href="#DejaVuSans-114"/>
       <use x="532.830078" xlink:href="#DejaVuSans-100"/>
       <use x="596.306641" xlink:href="#DejaVuSans-101"/>
       <use x="657.830078" xlink:href="#DejaVuSans-110"/>
       <use x="721.208984" xlink:href="#DejaVuSans-97"/>
      </g>
     </g>
    </g>
    <g id="xtick_17">
     <g id="line2d_17">
      <g>
       <use style="stroke:#000000;stroke-width:0.8;" x="223.777155" xlink:href="#meb77a2d6bc" y="239.758125"/>
      </g>
     </g>
     <g id="text_17">
      <!-- Megawati Santoso -->
      <g transform="translate(226.53653 338.38)rotate(-90)scale(0.1 -0.1)">
       <use xlink:href="#DejaVuSans-77"/>
       <use x="86.279297" xlink:href="#DejaVuSans-101"/>
       <use x="147.802734" xlink:href="#DejaVuSans-103"/>
       <use x="211.279297" xlink:href="#DejaVuSans-97"/>
       <use x="272.558594" xlink:href="#DejaVuSans-119"/>
       <use x="354.345703" xlink:href="#DejaVuSans-97"/>
       <use x="415.625" xlink:href="#DejaVuSans-116"/>
       <use x="454.833984" xlink:href="#DejaVuSans-105"/>
       <use x="482.617188" xlink:href="#DejaVuSans-32"/>
       <use x="514.404297" xlink:href="#DejaVuSans-83"/>
       <use x="577.880859" xlink:href="#DejaVuSans-97"/>
       <use x="639.160156" xlink:href="#DejaVuSans-110"/>
       <use x="702.539062" xlink:href="#DejaVuSans-116"/>
       <use x="741.748047" xlink:href="#DejaVuSans-111"/>
       <use x="802.929688" xlink:href="#DejaVuSans-115"/>
       <use x="855.029297" xlink:href="#DejaVuSans-111"/>
      </g>
     </g>
    </g>
    <g id="xtick_18">
     <g id="line2d_18">
      <g>
       <use style="stroke:#000000;stroke-width:0.8;" x="235.321983" xlink:href="#meb77a2d6bc" y="239.758125"/>
      </g>
     </g>
     <g id="text_18">
      <!-- Deddy Kurniadi -->
      <g transform="translate(238.081358 323.772188)rotate(-90)scale(0.1 -0.1)">
       <use xlink:href="#DejaVuSans-68"/>
       <use x="77.001953" xlink:href="#DejaVuSans-101"/>
       <use x="138.525391" xlink:href="#DejaVuSans-100"/>
       <use x="202.001953" xlink:href="#DejaVuSans-100"/>
       <use x="265.478516" xlink:href="#DejaVuSans-121"/>
       <use x="324.658203" xlink:href="#DejaVuSans-32"/>
       <use x="356.445312" xlink:href="#DejaVuSans-75"/>
       <use x="421.943359" xlink:href="#DejaVuSans-117"/>
       <use x="485.322266" xlink:href="#DejaVuSans-114"/>
       <use x="526.419922" xlink:href="#DejaVuSans-110"/>
       <use x="589.798828" xlink:href="#DejaVuSans-105"/>
       <use x="617.582031" xlink:href="#DejaVuSans-97"/>
       <use x="678.861328" xlink:href="#DejaVuSans-100"/>
       <use x="742.337891" xlink:href="#DejaVuSans-105"/>
      </g>
     </g>
    </g>
    <g id="xtick_19">
     <g id="line2d_19">
      <g>
       <use style="stroke:#000000;stroke-width:0.8;" x="246.86681" xlink:href="#meb77a2d6bc" y="239.758125"/>
      </g>
     </g>
     <g id="text_19">
      <!-- Togar M Simatupang -->
      <g transform="translate(249.626185 350.945625)rotate(-90)scale(0.1 -0.1)">
       <use xlink:href="#DejaVuSans-84"/>
       <use x="60.818359" xlink:href="#DejaVuSans-111"/>
       <use x="122" xlink:href="#DejaVuSans-103"/>
       <use x="185.476562" xlink:href="#DejaVuSans-97"/>
       <use x="246.755859" xlink:href="#DejaVuSans-114"/>
       <use x="287.869141" xlink:href="#DejaVuSans-32"/>
       <use x="319.65625" xlink:href="#DejaVuSans-77"/>
       <use x="405.935547" xlink:href="#DejaVuSans-32"/>
       <use x="437.722656" xlink:href="#DejaVuSans-83"/>
       <use x="501.199219" xlink:href="#DejaVuSans-105"/>
       <use x="528.982422" xlink:href="#DejaVuSans-109"/>
       <use x="626.394531" xlink:href="#DejaVuSans-97"/>
       <use x="687.673828" xlink:href="#DejaVuSans-116"/>
       <use x="726.882812" xlink:href="#DejaVuSans-117"/>
       <use x="790.261719" xlink:href="#DejaVuSans-112"/>
       <use x="853.738281" xlink:href="#DejaVuSans-97"/>
       <use x="915.017578" xlink:href="#DejaVuSans-110"/>
       <use x="978.396484" xlink:href="#DejaVuSans-103"/>
      </g>
     </g>
    </g>
    <g id="xtick_20">
     <g id="line2d_20">
      <g>
       <use style="stroke:#000000;stroke-width:0.8;" x="258.411638" xlink:href="#meb77a2d6bc" y="239.758125"/>
      </g>
     </g>
     <g id="text_20">
      <!-- Miming Miharja -->
      <g transform="translate(261.171013 323.43625)rotate(-90)scale(0.1 -0.1)">
       <use xlink:href="#DejaVuSans-77"/>
       <use x="86.279297" xlink:href="#DejaVuSans-105"/>
       <use x="114.0625" xlink:href="#DejaVuSans-109"/>
       <use x="211.474609" xlink:href="#DejaVuSans-105"/>
       <use x="239.257812" xlink:href="#DejaVuSans-110"/>
       <use x="302.636719" xlink:href="#DejaVuSans-103"/>
       <use x="366.113281" xlink:href="#DejaVuSans-32"/>
       <use x="397.900391" xlink:href="#DejaVuSans-77"/>
       <use x="484.179688" xlink:href="#DejaVuSans-105"/>
       <use x="511.962891" xlink:href="#DejaVuSans-104"/>
       <use x="575.341797" xlink:href="#DejaVuSans-97"/>
       <use x="636.621094" xlink:href="#DejaVuSans-114"/>
       <use x="677.734375" xlink:href="#DejaVuSans-106"/>
       <use x="705.517578" xlink:href="#DejaVuSans-97"/>
      </g>
     </g>
    </g>
    <g id="xtick_21">
     <g id="line2d_21">
      <g>
       <use style="stroke:#000000;stroke-width:0.8;" x="269.956466" xlink:href="#meb77a2d6bc" y="239.758125"/>
      </g>
     </g>
     <g id="text_21">
      <!-- Jaka Sembiring -->
      <defs>
       <path d="M 9.8125 72.90625 
L 19.671875 72.90625 
L 19.671875 5.078125 
Q 19.671875 -8.109375 14.671875 -14.0625 
Q 9.671875 -20.015625 -1.421875 -20.015625 
L -5.171875 -20.015625 
L -5.171875 -11.71875 
L -2.09375 -11.71875 
Q 4.4375 -11.71875 7.125 -8.046875 
Q 9.8125 -4.390625 9.8125 5.078125 
z
" id="DejaVuSans-74"/>
      </defs>
      <g transform="translate(272.715841 321.875313)rotate(-90)scale(0.1 -0.1)">
       <use xlink:href="#DejaVuSans-74"/>
       <use x="29.492188" xlink:href="#DejaVuSans-97"/>
       <use x="90.771484" xlink:href="#DejaVuSans-107"/>
       <use x="148.666016" xlink:href="#DejaVuSans-97"/>
       <use x="209.945312" xlink:href="#DejaVuSans-32"/>
       <use x="241.732422" xlink:href="#DejaVuSans-83"/>
       <use x="305.208984" xlink:href="#DejaVuSans-101"/>
       <use x="366.732422" xlink:href="#DejaVuSans-109"/>
       <use x="464.144531" xlink:href="#DejaVuSans-98"/>
       <use x="527.621094" xlink:href="#DejaVuSans-105"/>
       <use x="555.404297" xlink:href="#DejaVuSans-114"/>
       <use x="596.517578" xlink:href="#DejaVuSans-105"/>
       <use x="624.300781" xlink:href="#DejaVuSans-110"/>
       <use x="687.679688" xlink:href="#DejaVuSans-103"/>
      </g>
     </g>
    </g>
    <g id="xtick_22">
     <g id="line2d_22">
      <g>
       <use style="stroke:#000000;stroke-width:0.8;" x="281.501293" xlink:href="#meb77a2d6bc" y="239.758125"/>
      </g>
     </g>
     <g id="text_22">
      <!-- Bramantyo Djohanputro -->
      <g transform="translate(284.260668 367.433125)rotate(-90)scale(0.1 -0.1)">
       <use xlink:href="#DejaVuSans-66"/>
       <use x="68.603516" xlink:href="#DejaVuSans-114"/>
       <use x="109.716797" xlink:href="#DejaVuSans-97"/>
       <use x="170.996094" xlink:href="#DejaVuSans-109"/>
       <use x="268.408203" xlink:href="#DejaVuSans-97"/>
       <use x="329.6875" xlink:href="#DejaVuSans-110"/>
       <use x="393.066406" xlink:href="#DejaVuSans-116"/>
       <use x="432.275391" xlink:href="#DejaVuSans-121"/>
       <use x="491.455078" xlink:href="#DejaVuSans-111"/>
       <use x="552.636719" xlink:href="#DejaVuSans-32"/>
       <use x="584.423828" xlink:href="#DejaVuSans-68"/>
       <use x="661.425781" xlink:href="#DejaVuSans-106"/>
       <use x="689.208984" xlink:href="#DejaVuSans-111"/>
       <use x="750.390625" xlink:href="#DejaVuSans-104"/>
       <use x="813.769531" xlink:href="#DejaVuSans-97"/>
       <use x="875.048828" xlink:href="#DejaVuSans-110"/>
       <use x="938.427734" xlink:href="#DejaVuSans-112"/>
       <use x="1001.904297" xlink:href="#DejaVuSans-117"/>
       <use x="1065.283203" xlink:href="#DejaVuSans-116"/>
       <use x="1104.492188" xlink:href="#DejaVuSans-114"/>
       <use x="1145.574219" xlink:href="#DejaVuSans-111"/>
      </g>
     </g>
    </g>
    <g id="xtick_23">
     <g id="line2d_23">
      <g>
       <use style="stroke:#000000;stroke-width:0.8;" x="293.046121" xlink:href="#meb77a2d6bc" y="239.758125"/>
      </g>
     </g>
     <g id="text_23">
      <!-- Dermawan Wibisono -->
      <defs>
       <path d="M 3.328125 72.90625 
L 13.28125 72.90625 
L 28.609375 11.28125 
L 43.890625 72.90625 
L 54.984375 72.90625 
L 70.3125 11.28125 
L 85.59375 72.90625 
L 95.609375 72.90625 
L 77.296875 0 
L 64.890625 0 
L 49.515625 63.28125 
L 33.984375 0 
L 21.578125 0 
z
" id="DejaVuSans-87"/>
      </defs>
      <g transform="translate(295.805496 349.984688)rotate(-90)scale(0.1 -0.1)">
       <use xlink:href="#DejaVuSans-68"/>
       <use x="77.001953" xlink:href="#DejaVuSans-101"/>
       <use x="138.525391" xlink:href="#DejaVuSans-114"/>
       <use x="179.623047" xlink:href="#DejaVuSans-109"/>
       <use x="277.035156" xlink:href="#DejaVuSans-97"/>
       <use x="338.314453" xlink:href="#DejaVuSans-119"/>
       <use x="420.101562" xlink:href="#DejaVuSans-97"/>
       <use x="481.380859" xlink:href="#DejaVuSans-110"/>
       <use x="544.759766" xlink:href="#DejaVuSans-32"/>
       <use x="576.546875" xlink:href="#DejaVuSans-87"/>
       <use x="675.392578" xlink:href="#DejaVuSans-105"/>
       <use x="703.175781" xlink:href="#DejaVuSans-98"/>
       <use x="766.652344" xlink:href="#DejaVuSans-105"/>
       <use x="794.435547" xlink:href="#DejaVuSans-115"/>
       <use x="846.535156" xlink:href="#DejaVuSans-111"/>
       <use x="907.716797" xlink:href="#DejaVuSans-110"/>
       <use x="971.095703" xlink:href="#DejaVuSans-111"/>
      </g>
     </g>
    </g>
    <g id="xtick_24">
     <g id="line2d_24">
      <g>
       <use style="stroke:#000000;stroke-width:0.8;" x="304.590948" xlink:href="#meb77a2d6bc" y="239.758125"/>
      </g>
     </g>
     <g id="text_24">
      <!-- Dwi Larso -->
      <g transform="translate(307.350323 295.731562)rotate(-90)scale(0.1 -0.1)">
       <use xlink:href="#DejaVuSans-68"/>
       <use x="77.001953" xlink:href="#DejaVuSans-119"/>
       <use x="158.789062" xlink:href="#DejaVuSans-105"/>
       <use x="186.572266" xlink:href="#DejaVuSans-32"/>
       <use x="218.359375" xlink:href="#DejaVuSans-76"/>
       <use x="274.072266" xlink:href="#DejaVuSans-97"/>
       <use x="335.351562" xlink:href="#DejaVuSans-114"/>
       <use x="376.464844" xlink:href="#DejaVuSans-115"/>
       <use x="428.564453" xlink:href="#DejaVuSans-111"/>
      </g>
     </g>
    </g>
    <g id="xtick_25">
     <g id="line2d_25">
      <g>
       <use style="stroke:#000000;stroke-width:0.8;" x="316.135776" xlink:href="#meb77a2d6bc" y="239.758125"/>
      </g>
     </g>
     <g id="text_25">
      <!-- I Nyoman Pugeg Aryantha -->
      <defs>
       <path d="M 9.8125 72.90625 
L 19.671875 72.90625 
L 19.671875 0 
L 9.8125 0 
z
" id="DejaVuSans-73"/>
       <path d="M 9.8125 72.90625 
L 23.09375 72.90625 
L 55.421875 11.921875 
L 55.421875 72.90625 
L 64.984375 72.90625 
L 64.984375 0 
L 51.703125 0 
L 19.390625 60.984375 
L 19.390625 0 
L 9.8125 0 
z
" id="DejaVuSans-78"/>
      </defs>
      <g transform="translate(318.895151 377.905)rotate(-90)scale(0.1 -0.1)">
       <use xlink:href="#DejaVuSans-73"/>
       <use x="29.492188" xlink:href="#DejaVuSans-32"/>
       <use x="61.279297" xlink:href="#DejaVuSans-78"/>
       <use x="136.083984" xlink:href="#DejaVuSans-121"/>
       <use x="195.263672" xlink:href="#DejaVuSans-111"/>
       <use x="256.445312" xlink:href="#DejaVuSans-109"/>
       <use x="353.857422" xlink:href="#DejaVuSans-97"/>
       <use x="415.136719" xlink:href="#DejaVuSans-110"/>
       <use x="478.515625" xlink:href="#DejaVuSans-32"/>
       <use x="510.302734" xlink:href="#DejaVuSans-80"/>
       <use x="570.589844" xlink:href="#DejaVuSans-117"/>
       <use x="633.96875" xlink:href="#DejaVuSans-103"/>
       <use x="697.445312" xlink:href="#DejaVuSans-101"/>
       <use x="758.96875" xlink:href="#DejaVuSans-103"/>
       <use x="822.445312" xlink:href="#DejaVuSans-32"/>
       <use x="854.232422" xlink:href="#DejaVuSans-65"/>
       <use x="922.640625" xlink:href="#DejaVuSans-114"/>
       <use x="963.753906" xlink:href="#DejaVuSans-121"/>
       <use x="1022.933594" xlink:href="#DejaVuSans-97"/>
       <use x="1084.212891" xlink:href="#DejaVuSans-110"/>
       <use x="1147.591797" xlink:href="#DejaVuSans-116"/>
       <use x="1186.800781" xlink:href="#DejaVuSans-104"/>
       <use x="1250.179688" xlink:href="#DejaVuSans-97"/>
      </g>
     </g>
    </g>
    <g id="xtick_26">
     <g id="line2d_26">
      <g>
       <use style="stroke:#000000;stroke-width:0.8;" x="327.680603" xlink:href="#meb77a2d6bc" y="239.758125"/>
      </g>
     </g>
     <g id="text_26">
      <!-- Gusti Ayu Putri Saptawati S -->
      <defs>
       <path d="M 59.515625 10.40625 
L 59.515625 29.984375 
L 43.40625 29.984375 
L 43.40625 38.09375 
L 69.28125 38.09375 
L 69.28125 6.78125 
Q 63.578125 2.734375 56.6875 0.65625 
Q 49.8125 -1.421875 42 -1.421875 
Q 24.90625 -1.421875 15.25 8.5625 
Q 5.609375 18.5625 5.609375 36.375 
Q 5.609375 54.25 15.25 64.234375 
Q 24.90625 74.21875 42 74.21875 
Q 49.125 74.21875 55.546875 72.453125 
Q 61.96875 70.703125 67.390625 67.28125 
L 67.390625 56.78125 
Q 61.921875 61.421875 55.765625 63.765625 
Q 49.609375 66.109375 42.828125 66.109375 
Q 29.4375 66.109375 22.71875 58.640625 
Q 16.015625 51.171875 16.015625 36.375 
Q 16.015625 21.625 22.71875 14.15625 
Q 29.4375 6.6875 42.828125 6.6875 
Q 48.046875 6.6875 52.140625 7.59375 
Q 56.25 8.5 59.515625 10.40625 
z
" id="DejaVuSans-71"/>
      </defs>
      <g transform="translate(330.439978 383.953438)rotate(-90)scale(0.1 -0.1)">
       <use xlink:href="#DejaVuSans-71"/>
       <use x="77.490234" xlink:href="#DejaVuSans-117"/>
       <use x="140.869141" xlink:href="#DejaVuSans-115"/>
       <use x="192.96875" xlink:href="#DejaVuSans-116"/>
       <use x="232.177734" xlink:href="#DejaVuSans-105"/>
       <use x="259.960938" xlink:href="#DejaVuSans-32"/>
       <use x="291.748047" xlink:href="#DejaVuSans-65"/>
       <use x="360.0625" xlink:href="#DejaVuSans-121"/>
       <use x="419.242188" xlink:href="#DejaVuSans-117"/>
       <use x="482.621094" xlink:href="#DejaVuSans-32"/>
       <use x="514.408203" xlink:href="#DejaVuSans-80"/>
       <use x="574.695312" xlink:href="#DejaVuSans-117"/>
       <use x="638.074219" xlink:href="#DejaVuSans-116"/>
       <use x="677.283203" xlink:href="#DejaVuSans-114"/>
       <use x="718.396484" xlink:href="#DejaVuSans-105"/>
       <use x="746.179688" xlink:href="#DejaVuSans-32"/>
       <use x="777.966797" xlink:href="#DejaVuSans-83"/>
       <use x="841.443359" xlink:href="#DejaVuSans-97"/>
       <use x="902.722656" xlink:href="#DejaVuSans-112"/>
       <use x="966.199219" xlink:href="#DejaVuSans-116"/>
       <use x="1005.408203" xlink:href="#DejaVuSans-97"/>
       <use x="1066.6875" xlink:href="#DejaVuSans-119"/>
       <use x="1148.474609" xlink:href="#DejaVuSans-97"/>
       <use x="1209.753906" xlink:href="#DejaVuSans-116"/>
       <use x="1248.962891" xlink:href="#DejaVuSans-105"/>
       <use x="1276.746094" xlink:href="#DejaVuSans-32"/>
       <use x="1308.533203" xlink:href="#DejaVuSans-83"/>
      </g>
     </g>
    </g>
    <g id="xtick_27">
     <g id="line2d_27">
      <g>
       <use style="stroke:#000000;stroke-width:0.8;" x="339.225431" xlink:href="#meb77a2d6bc" y="239.758125"/>
      </g>
     </g>
     <g id="text_27">
      <!-- Widjaja Martokusumo -->
      <g transform="translate(341.984806 355.195625)rotate(-90)scale(0.1 -0.1)">
       <use xlink:href="#DejaVuSans-87"/>
       <use x="98.845703" xlink:href="#DejaVuSans-105"/>
       <use x="126.628906" xlink:href="#DejaVuSans-100"/>
       <use x="190.105469" xlink:href="#DejaVuSans-106"/>
       <use x="217.888672" xlink:href="#DejaVuSans-97"/>
       <use x="279.167969" xlink:href="#DejaVuSans-106"/>
       <use x="306.951172" xlink:href="#DejaVuSans-97"/>
       <use x="368.230469" xlink:href="#DejaVuSans-32"/>
       <use x="400.017578" xlink:href="#DejaVuSans-77"/>
       <use x="486.296875" xlink:href="#DejaVuSans-97"/>
       <use x="547.576172" xlink:href="#DejaVuSans-114"/>
       <use x="588.689453" xlink:href="#DejaVuSans-116"/>
       <use x="627.898438" xlink:href="#DejaVuSans-111"/>
       <use x="689.080078" xlink:href="#DejaVuSans-107"/>
       <use x="746.943359" xlink:href="#DejaVuSans-117"/>
       <use x="810.322266" xlink:href="#DejaVuSans-115"/>
       <use x="862.421875" xlink:href="#DejaVuSans-117"/>
       <use x="925.800781" xlink:href="#DejaVuSans-109"/>
       <use x="1023.212891" xlink:href="#DejaVuSans-111"/>
      </g>
     </g>
    </g>
    <g id="xtick_28">
     <g id="line2d_28">
      <g>
       <use style="stroke:#000000;stroke-width:0.8;" x="350.770259" xlink:href="#meb77a2d6bc" y="239.758125"/>
      </g>
     </g>
     <g id="text_28">
      <!-- Daryono Hadi Tjahjono -->
      <g transform="translate(353.529634 361.026875)rotate(-90)scale(0.1 -0.1)">
       <use xlink:href="#DejaVuSans-68"/>
       <use x="77.001953" xlink:href="#DejaVuSans-97"/>
       <use x="138.28125" xlink:href="#DejaVuSans-114"/>
       <use x="179.394531" xlink:href="#DejaVuSans-121"/>
       <use x="238.574219" xlink:href="#DejaVuSans-111"/>
       <use x="299.755859" xlink:href="#DejaVuSans-110"/>
       <use x="363.134766" xlink:href="#DejaVuSans-111"/>
       <use x="424.316406" xlink:href="#DejaVuSans-32"/>
       <use x="456.103516" xlink:href="#DejaVuSans-72"/>
       <use x="531.298828" xlink:href="#DejaVuSans-97"/>
       <use x="592.578125" xlink:href="#DejaVuSans-100"/>
       <use x="656.054688" xlink:href="#DejaVuSans-105"/>
       <use x="683.837891" xlink:href="#DejaVuSans-32"/>
       <use x="715.625" xlink:href="#DejaVuSans-84"/>
       <use x="776.708984" xlink:href="#DejaVuSans-106"/>
       <use x="804.492188" xlink:href="#DejaVuSans-97"/>
       <use x="865.771484" xlink:href="#DejaVuSans-104"/>
       <use x="929.150391" xlink:href="#DejaVuSans-106"/>
       <use x="956.933594" xlink:href="#DejaVuSans-111"/>
       <use x="1018.115234" xlink:href="#DejaVuSans-110"/>
       <use x="1081.494141" xlink:href="#DejaVuSans-111"/>
      </g>
     </g>
    </g>
    <g id="xtick_29">
     <g id="line2d_29">
      <g>
       <use style="stroke:#000000;stroke-width:0.8;" x="362.315086" xlink:href="#meb77a2d6bc" y="239.758125"/>
      </g>
     </g>
     <g id="text_29">
      <!-- Teti Amiati Argo -->
      <g transform="translate(365.074461 327.650313)rotate(-90)scale(0.1 -0.1)">
       <use xlink:href="#DejaVuSans-84"/>
       <use x="60.818359" xlink:href="#DejaVuSans-101"/>
       <use x="122.341797" xlink:href="#DejaVuSans-116"/>
       <use x="161.550781" xlink:href="#DejaVuSans-105"/>
       <use x="189.333984" xlink:href="#DejaVuSans-32"/>
       <use x="221.121094" xlink:href="#DejaVuSans-65"/>
       <use x="289.529297" xlink:href="#DejaVuSans-109"/>
       <use x="386.941406" xlink:href="#DejaVuSans-105"/>
       <use x="414.724609" xlink:href="#DejaVuSans-97"/>
       <use x="476.003906" xlink:href="#DejaVuSans-116"/>
       <use x="515.212891" xlink:href="#DejaVuSans-105"/>
       <use x="542.996094" xlink:href="#DejaVuSans-32"/>
       <use x="574.783203" xlink:href="#DejaVuSans-65"/>
       <use x="643.191406" xlink:href="#DejaVuSans-114"/>
       <use x="684.289062" xlink:href="#DejaVuSans-103"/>
       <use x="747.765625" xlink:href="#DejaVuSans-111"/>
      </g>
     </g>
    </g>
   </g>
   <g id="matplotlib.axis_2">
    <g id="ytick_1">
     <g id="line2d_30">
      <defs>
       <path d="M 0 0 
L -3.5 0 
" id="mc9bcd1cfbc" style="stroke:#000000;stroke-width:0.8;"/>
      </defs>
      <g>
       <use style="stroke:#000000;stroke-width:0.8;" x="33.2875" xlink:href="#mc9bcd1cfbc" y="239.758125"/>
      </g>
     </g>
     <g id="text_30">
      <!-- 0 -->
      <defs>
       <path d="M 31.78125 66.40625 
Q 24.171875 66.40625 20.328125 58.90625 
Q 16.5 51.421875 16.5 36.375 
Q 16.5 21.390625 20.328125 13.890625 
Q 24.171875 6.390625 31.78125 6.390625 
Q 39.453125 6.390625 43.28125 13.890625 
Q 47.125 21.390625 47.125 36.375 
Q 47.125 51.421875 43.28125 58.90625 
Q 39.453125 66.40625 31.78125 66.40625 
z
M 31.78125 74.21875 
Q 44.046875 74.21875 50.515625 64.515625 
Q 56.984375 54.828125 56.984375 36.375 
Q 56.984375 17.96875 50.515625 8.265625 
Q 44.046875 -1.421875 31.78125 -1.421875 
Q 19.53125 -1.421875 13.0625 8.265625 
Q 6.59375 17.96875 6.59375 36.375 
Q 6.59375 54.828125 13.0625 64.515625 
Q 19.53125 74.21875 31.78125 74.21875 
z
" id="DejaVuSans-48"/>
      </defs>
      <g transform="translate(19.925 243.557344)scale(0.1 -0.1)">
       <use xlink:href="#DejaVuSans-48"/>
      </g>
     </g>
    </g>
    <g id="ytick_2">
     <g id="line2d_31">
      <g>
       <use style="stroke:#000000;stroke-width:0.8;" x="33.2875" xlink:href="#mc9bcd1cfbc" y="204.053692"/>
      </g>
     </g>
     <g id="text_31">
      <!-- 20 -->
      <defs>
       <path d="M 19.1875 8.296875 
L 53.609375 8.296875 
L 53.609375 0 
L 7.328125 0 
L 7.328125 8.296875 
Q 12.9375 14.109375 22.625 23.890625 
Q 32.328125 33.6875 34.8125 36.53125 
Q 39.546875 41.84375 41.421875 45.53125 
Q 43.3125 49.21875 43.3125 52.78125 
Q 43.3125 58.59375 39.234375 62.25 
Q 35.15625 65.921875 28.609375 65.921875 
Q 23.96875 65.921875 18.8125 64.3125 
Q 13.671875 62.703125 7.8125 59.421875 
L 7.8125 69.390625 
Q 13.765625 71.78125 18.9375 73 
Q 24.125 74.21875 28.421875 74.21875 
Q 39.75 74.21875 46.484375 68.546875 
Q 53.21875 62.890625 53.21875 53.421875 
Q 53.21875 48.921875 51.53125 44.890625 
Q 49.859375 40.875 45.40625 35.40625 
Q 44.1875 33.984375 37.640625 27.21875 
Q 31.109375 20.453125 19.1875 8.296875 
z
" id="DejaVuSans-50"/>
      </defs>
      <g transform="translate(13.5625 207.85291)scale(0.1 -0.1)">
       <use xlink:href="#DejaVuSans-50"/>
       <use x="63.623047" xlink:href="#DejaVuSans-48"/>
      </g>
     </g>
    </g>
    <g id="ytick_3">
     <g id="line2d_32">
      <g>
       <use style="stroke:#000000;stroke-width:0.8;" x="33.2875" xlink:href="#mc9bcd1cfbc" y="168.349258"/>
      </g>
     </g>
     <g id="text_32">
      <!-- 40 -->
      <defs>
       <path d="M 37.796875 64.3125 
L 12.890625 25.390625 
L 37.796875 25.390625 
z
M 35.203125 72.90625 
L 47.609375 72.90625 
L 47.609375 25.390625 
L 58.015625 25.390625 
L 58.015625 17.1875 
L 47.609375 17.1875 
L 47.609375 0 
L 37.796875 0 
L 37.796875 17.1875 
L 4.890625 17.1875 
L 4.890625 26.703125 
z
" id="DejaVuSans-52"/>
      </defs>
      <g transform="translate(13.5625 172.148477)scale(0.1 -0.1)">
       <use xlink:href="#DejaVuSans-52"/>
       <use x="63.623047" xlink:href="#DejaVuSans-48"/>
      </g>
     </g>
    </g>
    <g id="ytick_4">
     <g id="line2d_33">
      <g>
       <use style="stroke:#000000;stroke-width:0.8;" x="33.2875" xlink:href="#mc9bcd1cfbc" y="132.644825"/>
      </g>
     </g>
     <g id="text_33">
      <!-- 60 -->
      <defs>
       <path d="M 33.015625 40.375 
Q 26.375 40.375 22.484375 35.828125 
Q 18.609375 31.296875 18.609375 23.390625 
Q 18.609375 15.53125 22.484375 10.953125 
Q 26.375 6.390625 33.015625 6.390625 
Q 39.65625 6.390625 43.53125 10.953125 
Q 47.40625 15.53125 47.40625 23.390625 
Q 47.40625 31.296875 43.53125 35.828125 
Q 39.65625 40.375 33.015625 40.375 
z
M 52.59375 71.296875 
L 52.59375 62.3125 
Q 48.875 64.0625 45.09375 64.984375 
Q 41.3125 65.921875 37.59375 65.921875 
Q 27.828125 65.921875 22.671875 59.328125 
Q 17.53125 52.734375 16.796875 39.40625 
Q 19.671875 43.65625 24.015625 45.921875 
Q 28.375 48.1875 33.59375 48.1875 
Q 44.578125 48.1875 50.953125 41.515625 
Q 57.328125 34.859375 57.328125 23.390625 
Q 57.328125 12.15625 50.6875 5.359375 
Q 44.046875 -1.421875 33.015625 -1.421875 
Q 20.359375 -1.421875 13.671875 8.265625 
Q 6.984375 17.96875 6.984375 36.375 
Q 6.984375 53.65625 15.1875 63.9375 
Q 23.390625 74.21875 37.203125 74.21875 
Q 40.921875 74.21875 44.703125 73.484375 
Q 48.484375 72.75 52.59375 71.296875 
z
" id="DejaVuSans-54"/>
      </defs>
      <g transform="translate(13.5625 136.444043)scale(0.1 -0.1)">
       <use xlink:href="#DejaVuSans-54"/>
       <use x="63.623047" xlink:href="#DejaVuSans-48"/>
      </g>
     </g>
    </g>
    <g id="ytick_5">
     <g id="line2d_34">
      <g>
       <use style="stroke:#000000;stroke-width:0.8;" x="33.2875" xlink:href="#mc9bcd1cfbc" y="96.940391"/>
      </g>
     </g>
     <g id="text_34">
      <!-- 80 -->
      <defs>
       <path d="M 31.78125 34.625 
Q 24.75 34.625 20.71875 30.859375 
Q 16.703125 27.09375 16.703125 20.515625 
Q 16.703125 13.921875 20.71875 10.15625 
Q 24.75 6.390625 31.78125 6.390625 
Q 38.8125 6.390625 42.859375 10.171875 
Q 46.921875 13.96875 46.921875 20.515625 
Q 46.921875 27.09375 42.890625 30.859375 
Q 38.875 34.625 31.78125 34.625 
z
M 21.921875 38.8125 
Q 15.578125 40.375 12.03125 44.71875 
Q 8.5 49.078125 8.5 55.328125 
Q 8.5 64.0625 14.71875 69.140625 
Q 20.953125 74.21875 31.78125 74.21875 
Q 42.671875 74.21875 48.875 69.140625 
Q 55.078125 64.0625 55.078125 55.328125 
Q 55.078125 49.078125 51.53125 44.71875 
Q 48 40.375 41.703125 38.8125 
Q 48.828125 37.15625 52.796875 32.3125 
Q 56.78125 27.484375 56.78125 20.515625 
Q 56.78125 9.90625 50.3125 4.234375 
Q 43.84375 -1.421875 31.78125 -1.421875 
Q 19.734375 -1.421875 13.25 4.234375 
Q 6.78125 9.90625 6.78125 20.515625 
Q 6.78125 27.484375 10.78125 32.3125 
Q 14.796875 37.15625 21.921875 38.8125 
z
M 18.3125 54.390625 
Q 18.3125 48.734375 21.84375 45.5625 
Q 25.390625 42.390625 31.78125 42.390625 
Q 38.140625 42.390625 41.71875 45.5625 
Q 45.3125 48.734375 45.3125 54.390625 
Q 45.3125 60.0625 41.71875 63.234375 
Q 38.140625 66.40625 31.78125 66.40625 
Q 25.390625 66.40625 21.84375 63.234375 
Q 18.3125 60.0625 18.3125 54.390625 
z
" id="DejaVuSans-56"/>
      </defs>
      <g transform="translate(13.5625 100.73961)scale(0.1 -0.1)">
       <use xlink:href="#DejaVuSans-56"/>
       <use x="63.623047" xlink:href="#DejaVuSans-48"/>
      </g>
     </g>
    </g>
    <g id="ytick_6">
     <g id="line2d_35">
      <g>
       <use style="stroke:#000000;stroke-width:0.8;" x="33.2875" xlink:href="#mc9bcd1cfbc" y="61.235958"/>
      </g>
     </g>
     <g id="text_35">
      <!-- 100 -->
      <defs>
       <path d="M 12.40625 8.296875 
L 28.515625 8.296875 
L 28.515625 63.921875 
L 10.984375 60.40625 
L 10.984375 69.390625 
L 28.421875 72.90625 
L 38.28125 72.90625 
L 38.28125 8.296875 
L 54.390625 8.296875 
L 54.390625 0 
L 12.40625 0 
z
" id="DejaVuSans-49"/>
      </defs>
      <g transform="translate(7.2 65.035176)scale(0.1 -0.1)">
       <use xlink:href="#DejaVuSans-49"/>
       <use x="63.623047" xlink:href="#DejaVuSans-48"/>
       <use x="127.246094" xlink:href="#DejaVuSans-48"/>
      </g>
     </g>
    </g>
    <g id="ytick_7">
     <g id="line2d_36">
      <g>
       <use style="stroke:#000000;stroke-width:0.8;" x="33.2875" xlink:href="#mc9bcd1cfbc" y="25.531524"/>
      </g>
     </g>
     <g id="text_36">
      <!-- 120 -->
      <g transform="translate(7.2 29.330743)scale(0.1 -0.1)">
       <use xlink:href="#DejaVuSans-49"/>
       <use x="63.623047" xlink:href="#DejaVuSans-50"/>
       <use x="127.246094" xlink:href="#DejaVuSans-48"/>
      </g>
     </g>
    </g>
   </g>
   <g id="patch_32">
    <path d="M 33.2875 239.758125 
L 33.2875 22.318125 
" style="fill:none;stroke:#000000;stroke-linecap:square;stroke-linejoin:miter;stroke-width:0.8;"/>
   </g>
   <g id="patch_33">
    <path d="M 368.0875 239.758125 
L 368.0875 22.318125 
" style="fill:none;stroke:#000000;stroke-linecap:square;stroke-linejoin:miter;stroke-width:0.8;"/>
   </g>
   <g id="patch_34">
    <path d="M 33.2875 239.758125 
L 368.0875 239.758125 
" style="fill:none;stroke:#000000;stroke-linecap:square;stroke-linejoin:miter;stroke-width:0.8;"/>
   </g>
   <g id="patch_35">
    <path d="M 33.2875 22.318125 
L 368.0875 22.318125 
" style="fill:none;stroke:#000000;stroke-linecap:square;stroke-linejoin:miter;stroke-width:0.8;"/>
   </g>
   <g id="text_37">
    <!-- 25-40th (Data-2 v19-09-2019 12:30) -->
    <defs>
     <path d="M 10.796875 72.90625 
L 49.515625 72.90625 
L 49.515625 64.59375 
L 19.828125 64.59375 
L 19.828125 46.734375 
Q 21.96875 47.46875 24.109375 47.828125 
Q 26.265625 48.1875 28.421875 48.1875 
Q 40.625 48.1875 47.75 41.5 
Q 54.890625 34.8125 54.890625 23.390625 
Q 54.890625 11.625 47.5625 5.09375 
Q 40.234375 -1.421875 26.90625 -1.421875 
Q 22.3125 -1.421875 17.546875 -0.640625 
Q 12.796875 0.140625 7.71875 1.703125 
L 7.71875 11.625 
Q 12.109375 9.234375 16.796875 8.0625 
Q 21.484375 6.890625 26.703125 6.890625 
Q 35.15625 6.890625 40.078125 11.328125 
Q 45.015625 15.765625 45.015625 23.390625 
Q 45.015625 31 40.078125 35.4375 
Q 35.15625 39.890625 26.703125 39.890625 
Q 22.75 39.890625 18.8125 39.015625 
Q 14.890625 38.140625 10.796875 36.28125 
z
" id="DejaVuSans-53"/>
     <path d="M 4.890625 31.390625 
L 31.203125 31.390625 
L 31.203125 23.390625 
L 4.890625 23.390625 
z
" id="DejaVuSans-45"/>
     <path d="M 31 75.875 
Q 24.46875 64.65625 21.28125 53.65625 
Q 18.109375 42.671875 18.109375 31.390625 
Q 18.109375 20.125 21.3125 9.0625 
Q 24.515625 -2 31 -13.1875 
L 23.1875 -13.1875 
Q 15.875 -1.703125 12.234375 9.375 
Q 8.59375 20.453125 8.59375 31.390625 
Q 8.59375 42.28125 12.203125 53.3125 
Q 15.828125 64.359375 23.1875 75.875 
z
" id="DejaVuSans-40"/>
     <path d="M 2.984375 54.6875 
L 12.5 54.6875 
L 29.59375 8.796875 
L 46.6875 54.6875 
L 56.203125 54.6875 
L 35.6875 0 
L 23.484375 0 
z
" id="DejaVuSans-118"/>
     <path d="M 10.984375 1.515625 
L 10.984375 10.5 
Q 14.703125 8.734375 18.5 7.8125 
Q 22.3125 6.890625 25.984375 6.890625 
Q 35.75 6.890625 40.890625 13.453125 
Q 46.046875 20.015625 46.78125 33.40625 
Q 43.953125 29.203125 39.59375 26.953125 
Q 35.25 24.703125 29.984375 24.703125 
Q 19.046875 24.703125 12.671875 31.3125 
Q 6.296875 37.9375 6.296875 49.421875 
Q 6.296875 60.640625 12.9375 67.421875 
Q 19.578125 74.21875 30.609375 74.21875 
Q 43.265625 74.21875 49.921875 64.515625 
Q 56.59375 54.828125 56.59375 36.375 
Q 56.59375 19.140625 48.40625 8.859375 
Q 40.234375 -1.421875 26.421875 -1.421875 
Q 22.703125 -1.421875 18.890625 -0.6875 
Q 15.09375 0.046875 10.984375 1.515625 
z
M 30.609375 32.421875 
Q 37.25 32.421875 41.125 36.953125 
Q 45.015625 41.5 45.015625 49.421875 
Q 45.015625 57.28125 41.125 61.84375 
Q 37.25 66.40625 30.609375 66.40625 
Q 23.96875 66.40625 20.09375 61.84375 
Q 16.21875 57.28125 16.21875 49.421875 
Q 16.21875 41.5 20.09375 36.953125 
Q 23.96875 32.421875 30.609375 32.421875 
z
" id="DejaVuSans-57"/>
     <path d="M 11.71875 12.40625 
L 22.015625 12.40625 
L 22.015625 0 
L 11.71875 0 
z
M 11.71875 51.703125 
L 22.015625 51.703125 
L 22.015625 39.3125 
L 11.71875 39.3125 
z
" id="DejaVuSans-58"/>
     <path d="M 40.578125 39.3125 
Q 47.65625 37.796875 51.625 33 
Q 55.609375 28.21875 55.609375 21.1875 
Q 55.609375 10.40625 48.1875 4.484375 
Q 40.765625 -1.421875 27.09375 -1.421875 
Q 22.515625 -1.421875 17.65625 -0.515625 
Q 12.796875 0.390625 7.625 2.203125 
L 7.625 11.71875 
Q 11.71875 9.328125 16.59375 8.109375 
Q 21.484375 6.890625 26.8125 6.890625 
Q 36.078125 6.890625 40.9375 10.546875 
Q 45.796875 14.203125 45.796875 21.1875 
Q 45.796875 27.640625 41.28125 31.265625 
Q 36.765625 34.90625 28.71875 34.90625 
L 20.21875 34.90625 
L 20.21875 43.015625 
L 29.109375 43.015625 
Q 36.375 43.015625 40.234375 45.921875 
Q 44.09375 48.828125 44.09375 54.296875 
Q 44.09375 59.90625 40.109375 62.90625 
Q 36.140625 65.921875 28.71875 65.921875 
Q 24.65625 65.921875 20.015625 65.03125 
Q 15.375 64.15625 9.8125 62.3125 
L 9.8125 71.09375 
Q 15.4375 72.65625 20.34375 73.4375 
Q 25.25 74.21875 29.59375 74.21875 
Q 40.828125 74.21875 47.359375 69.109375 
Q 53.90625 64.015625 53.90625 55.328125 
Q 53.90625 49.265625 50.4375 45.09375 
Q 46.96875 40.921875 40.578125 39.3125 
z
" id="DejaVuSans-51"/>
     <path d="M 8.015625 75.875 
L 15.828125 75.875 
Q 23.140625 64.359375 26.78125 53.3125 
Q 30.421875 42.28125 30.421875 31.390625 
Q 30.421875 20.453125 26.78125 9.375 
Q 23.140625 -1.703125 15.828125 -13.1875 
L 8.015625 -13.1875 
Q 14.5 -2 17.703125 9.0625 
Q 20.90625 20.125 20.90625 31.390625 
Q 20.90625 42.671875 17.703125 53.65625 
Q 14.5 64.65625 8.015625 75.875 
z
" id="DejaVuSans-41"/>
    </defs>
    <g transform="translate(90.675625 16.318125)scale(0.12 -0.12)">
     <use xlink:href="#DejaVuSans-50"/>
     <use x="63.623047" xlink:href="#DejaVuSans-53"/>
     <use x="127.246094" xlink:href="#DejaVuSans-45"/>
     <use x="163.330078" xlink:href="#DejaVuSans-52"/>
     <use x="226.953125" xlink:href="#DejaVuSans-48"/>
     <use x="290.576172" xlink:href="#DejaVuSans-116"/>
     <use x="329.785156" xlink:href="#DejaVuSans-104"/>
     <use x="393.164062" xlink:href="#DejaVuSans-32"/>
     <use x="424.951172" xlink:href="#DejaVuSans-40"/>
     <use x="463.964844" xlink:href="#DejaVuSans-68"/>
     <use x="540.966797" xlink:href="#DejaVuSans-97"/>
     <use x="602.246094" xlink:href="#DejaVuSans-116"/>
     <use x="641.455078" xlink:href="#DejaVuSans-97"/>
     <use x="702.734375" xlink:href="#DejaVuSans-45"/>
     <use x="738.818359" xlink:href="#DejaVuSans-50"/>
     <use x="802.441406" xlink:href="#DejaVuSans-32"/>
     <use x="834.228516" xlink:href="#DejaVuSans-118"/>
     <use x="893.408203" xlink:href="#DejaVuSans-49"/>
     <use x="957.03125" xlink:href="#DejaVuSans-57"/>
     <use x="1020.654297" xlink:href="#DejaVuSans-45"/>
     <use x="1056.738281" xlink:href="#DejaVuSans-48"/>
     <use x="1120.361328" xlink:href="#DejaVuSans-57"/>
     <use x="1183.984375" xlink:href="#DejaVuSans-45"/>
     <use x="1220.068359" xlink:href="#DejaVuSans-50"/>
     <use x="1283.691406" xlink:href="#DejaVuSans-48"/>
     <use x="1347.314453" xlink:href="#DejaVuSans-49"/>
     <use x="1410.9375" xlink:href="#DejaVuSans-57"/>
     <use x="1474.560547" xlink:href="#DejaVuSans-32"/>
     <use x="1506.347656" xlink:href="#DejaVuSans-49"/>
     <use x="1569.970703" xlink:href="#DejaVuSans-50"/>
     <use x="1633.59375" xlink:href="#DejaVuSans-58"/>
     <use x="1667.285156" xlink:href="#DejaVuSans-51"/>
     <use x="1730.908203" xlink:href="#DejaVuSans-48"/>
     <use x="1794.53125" xlink:href="#DejaVuSans-41"/>
    </g>
   </g>
  </g>
 </g>
 <defs>
  <clipPath id="p907569f582">
   <rect height="217.44" width="334.8" x="33.2875" y="22.318125"/>
  </clipPath>
 </defs>
</svg>
